<svg width="16" height="16" viewBox="0 0 16 16" fill="none" xmlns="http://www.w3.org/2000/svg">
<path fill-rule="evenodd" clip-rule="evenodd" d="M7.58312 0.602173C11.7254 0.602173 15.0831 4.04462 15.0831 8.29186C15.0831 11.6886 12.9366 14.5701 9.95837 15.5879C9.57812 15.6636 9.44312 15.4235 9.44312 15.2187C9.44312 14.9652 9.45212 14.1373 9.45212 13.1083C9.45212 12.3913 9.21212 11.9233 8.94287 11.6848C10.6131 11.4943 12.3681 10.844 12.3681 7.89049C12.3681 7.0505 12.0771 6.36503 11.5956 5.82653C11.6736 5.63228 11.9309 4.85013 11.5221 3.79113C11.5221 3.79113 10.8936 3.58509 9.46187 4.57959C8.86262 4.40934 8.22062 4.32367 7.58312 4.32067C6.94562 4.32367 6.30437 4.40934 5.70587 4.57959C4.27263 3.58509 3.64263 3.79113 3.64263 3.79113C3.23538 4.85013 3.49263 5.63228 3.56988 5.82653C3.09063 6.36503 2.79738 7.0505 2.79738 7.89049C2.79738 10.8365 4.54863 11.4968 6.21438 11.691C5.99988 11.883 5.80562 12.2217 5.73812 12.719C5.31062 12.9155 4.22462 13.2556 3.55562 12.0803C3.55562 12.0803 3.15888 11.3415 2.40588 11.2875C2.40588 11.2875 1.67463 11.2777 2.35488 11.7547C2.35488 11.7547 2.84613 11.991 3.18738 12.8797C3.18738 12.8797 3.62763 14.2522 5.71413 13.7872C5.71788 14.43 5.72463 15.0357 5.72463 15.2187C5.72463 15.422 5.58662 15.6599 5.21237 15.5886C2.23188 14.5724 0.0831299 11.6894 0.0831299 8.29186C0.0831299 4.04462 3.44163 0.602173 7.58312 0.602173Z" fill="#464646"/>
</svg>
