<svg width="16" height="16" viewBox="0 0 16 16" fill="none" xmlns="http://www.w3.org/2000/svg">
<path d="M14.527 0.716187H0.649466C0.339487 0.716187 0.0882568 0.967416 0.0882568 1.2774V15.1549C0.0882568 15.465 0.339487 15.7162 0.649466 15.7162H14.5272C14.8372 15.7162 15.0884 15.465 15.0884 15.1549V1.2774C15.0883 0.967416 14.837 0.716187 14.527 0.716187ZM4.07342 13.0593C4.07342 13.266 3.90598 13.4334 3.69928 13.4334H2.20141C1.9949 13.4334 1.82727 13.2659 1.82727 13.0593V6.51235C1.82727 6.30563 1.9949 6.13821 2.20141 6.13821H3.69928C3.90598 6.13821 4.07342 6.30563 4.07342 6.51235V13.0593ZM4.07342 4.61283C4.07342 4.81956 3.90598 4.98697 3.69928 4.98697H2.20141C1.9949 4.98697 1.82727 4.81953 1.82727 4.61283V3.28277C1.82727 3.07605 1.9949 2.90863 2.20141 2.90863H3.69928C3.90598 2.90863 4.07342 3.07605 4.07342 3.28277V4.61283ZM13.3493 13.0593C13.3493 13.266 13.1817 13.4334 12.9751 13.4334H11.4773C11.2705 13.4334 11.1031 13.2659 11.1031 13.0593V10.2949C11.1031 9.37828 11.0553 8.78543 10.9591 8.51626C10.8631 8.24706 10.7073 8.03792 10.4914 7.88884C10.2756 7.73956 10.0159 7.66509 9.71208 7.66509C9.32299 7.66509 8.97392 7.77171 8.66486 7.98479C8.35582 8.19806 8.14406 8.48032 8.02937 8.83202C7.9149 9.18372 7.85764 9.83397 7.85764 10.7824V13.0593C7.85764 13.266 7.69004 13.4334 7.4835 13.4334H5.98563C5.77912 13.4334 5.61149 13.2659 5.61149 13.0593V6.51235C5.61149 6.30563 5.77909 6.13821 5.98563 6.13821H7.32358C7.5303 6.13821 7.69772 6.30563 7.69772 6.51235V7.01108C7.69772 7.21781 7.79895 7.2511 7.93791 7.09826C8.63679 6.33033 9.48928 5.94628 10.4955 5.94628C10.9911 5.94628 11.444 6.03551 11.8544 6.21399C12.2647 6.39244 12.5752 6.62029 12.7856 6.89734C12.9961 7.17437 13.1428 7.48885 13.2253 7.84055C13.3078 8.19222 13.3493 8.69581 13.3493 9.35135V13.0593H13.3493Z" fill="#464646"/>
</svg>
