<svg width="16" height="16" viewBox="0 0 16 16" fill="none" xmlns="http://www.w3.org/2000/svg">
<path d="M10.6494 4.64012C10.6524 4.64012 10.6563 4.64012 10.6603 4.64012C10.7644 4.64012 10.861 4.67249 10.9402 4.72826L10.9387 4.72727C10.9965 4.77757 11.0353 4.84828 11.0448 4.92796V4.92946C11.0547 4.99022 11.0602 5.05994 11.0602 5.13115C11.0602 5.16352 11.0592 5.19539 11.0567 5.22727V5.22278C10.9447 6.40257 10.4586 9.26362 10.2116 10.5843C10.107 11.1436 9.90136 11.3309 9.70215 11.3488C9.26938 11.3891 8.9407 11.0629 8.52138 10.788C7.865 10.3572 7.49399 10.0893 6.85703 9.6695C6.12048 9.18494 6.59807 8.91751 7.01739 8.48225C7.12745 8.3677 9.03532 6.63215 9.07267 6.47478C9.07466 6.46531 9.07566 6.45486 9.07566 6.4439C9.07566 6.40506 9.06122 6.3697 9.03781 6.3428C9.01191 6.32587 8.97954 6.31641 8.94568 6.31641C8.92327 6.31641 8.90185 6.32089 8.88193 6.32836L8.88293 6.32786C8.81719 6.3428 7.76872 7.0357 5.73751 8.40655C5.5159 8.58135 5.23602 8.69191 4.93124 8.70486H4.92825C4.49648 8.65257 4.10454 8.55645 3.73253 8.4195L3.76939 8.43145C3.30225 8.27906 2.93124 8.19888 2.96311 7.94091C2.98004 7.80678 3.16497 7.6695 3.51789 7.52906C5.69186 6.58185 7.14156 5.95751 7.86699 5.65605C8.66729 5.23125 9.59508 4.88165 10.5707 4.65506L10.6489 4.63962L10.6494 4.64012ZM7.5657 0.150574C3.43124 0.160534 0.0831299 3.51462 0.0831299 7.65057C0.0831299 11.7925 3.4407 15.1506 7.58313 15.1506C11.7256 15.1506 15.0831 11.793 15.0831 7.65057C15.0831 3.51462 11.735 0.160534 7.60156 0.150574H7.60056C7.58894 0.150574 7.57732 0.150574 7.5657 0.150574Z" fill="#464646"/>
</svg>
