<svg width="16" height="16" viewBox="0 0 16 16" fill="none" xmlns="http://www.w3.org/2000/svg">
<path d="M11.9489 10.9674C11.7682 11.479 11.0496 11.9023 10.4766 12.0261C10.0844 12.1094 9.57289 12.1753 7.84939 11.461C5.91364 10.6591 3.22565 7.8023 3.22565 5.90123C3.22565 4.93344 3.78365 3.8065 4.7594 3.8065C5.2289 3.8065 5.3324 3.81566 5.4869 4.18626C5.66765 4.6229 6.10865 5.69866 6.16115 5.80894C6.3779 6.26133 5.94064 6.52616 5.62339 6.92003L5.61853 6.92572C5.51854 7.04268 5.40945 7.17028 5.53565 7.38731C5.66315 7.60338 6.10414 8.32211 6.75214 8.89903C7.58914 9.64476 8.26789 9.88284 8.51089 9.98412C8.69164 10.0591 8.90765 10.0417 9.03965 9.90062C9.2069 9.71982 9.41464 9.41984 9.62614 9.12425C9.77539 8.91268 9.96515 8.88627 10.1639 8.96129C10.2982 9.0078 12.0044 9.8002 12.0764 9.92699C12.1296 10.0193 12.1297 10.4557 11.9489 10.9674Z" fill="#464646"/>
<path d="M1.98519 12.4312L2.06727 12.1864L1.91524 11.9778C1.07643 10.8266 0.58313 9.40759 0.58313 7.87657C0.58313 4.01658 3.72241 0.876572 7.58088 0.876572H7.58463C11.4432 0.876572 14.5831 4.01665 14.5831 7.87657C14.5831 11.7365 11.4432 14.8766 7.58463 14.8766C6.16085 14.8766 4.84114 14.4533 3.73483 13.7211L3.53498 13.5888L3.30669 13.6618L1.36442 14.2824L1.98519 12.4312Z" stroke="#464646"/>
</svg>
