<svg width="21" height="27" viewBox="0 0 21 27" fill="none" xmlns="http://www.w3.org/2000/svg">
<path d="M10.5842 0.106522C5.06173 0.106522 0.584229 4.58402 0.584229 10.1065C0.584229 12.2811 1.29715 14.2765 2.48215 15.9107C2.5034 15.9499 2.50673 15.9936 2.5309 16.0311L9.19756 26.0311C9.50673 26.4949 10.0276 26.7732 10.5842 26.7732C11.1409 26.7732 11.6617 26.4949 11.9709 26.0311L18.6376 16.0311C18.6621 15.9936 18.6651 15.9499 18.6863 15.9107C19.8713 14.2765 20.5842 12.2811 20.5842 10.1065C20.5842 4.58402 16.1067 0.106522 10.5842 0.106522ZM10.5842 13.4399C8.74339 13.4399 7.2509 11.9474 7.2509 10.1065C7.2509 8.26569 8.74339 6.77319 10.5842 6.77319C12.4251 6.77319 13.9176 8.26569 13.9176 10.1065C13.9176 11.9474 12.4251 13.4399 10.5842 13.4399Z" fill="#464646"/>
</svg>
