<svg width="16" height="16" viewBox="0 0 16 16" fill="none" xmlns="http://www.w3.org/2000/svg">
<path d="M9.62168 10.7587L9.27573 11.1229C9.27573 11.1229 8.45351 11.9886 6.2092 9.62569C3.96491 7.26286 4.78712 6.39721 4.78712 6.39721L5.00496 6.16787C5.54161 5.60291 5.59219 4.69587 5.12399 4.03369L4.16628 2.67914C3.5868 1.85956 2.46707 1.7513 1.80288 2.45055L0.610782 3.70562C0.28145 4.05234 0.0607562 4.5018 0.0875207 5.0004C0.155989 6.27599 0.701055 9.02045 3.74256 12.2226C6.96794 15.6183 9.99429 15.7533 11.2319 15.6312C11.6233 15.5925 11.9637 15.3814 12.2381 15.0926L13.317 13.9567C14.0453 13.19 13.8399 11.8755 12.9081 11.3392L11.4571 10.504C10.8452 10.1518 10.0999 10.2552 9.62168 10.7587Z" fill="#464646"/>
<path d="M7.87738 1.13753C7.92766 0.826984 8.22121 0.616323 8.53176 0.666594C8.55098 0.670278 8.61288 0.681837 8.64523 0.689053C8.71009 0.703491 8.80047 0.725706 8.91318 0.758539C9.1386 0.824189 9.45349 0.932349 9.83141 1.10561C10.5881 1.45252 11.595 2.05935 12.6399 3.10427C13.6849 4.14918 14.2917 5.15612 14.6385 5.91279C14.8119 6.29073 14.92 6.60562 14.9856 6.83102C15.0184 6.94374 15.0407 7.03414 15.0551 7.09894C15.0623 7.13134 15.0677 7.15737 15.0713 7.17659L15.0757 7.20028C15.1259 7.5108 14.9172 7.81658 14.6067 7.86685C14.297 7.91698 14.0053 7.70728 13.9538 7.39825C13.9522 7.38989 13.9478 7.36764 13.9432 7.3466C13.9337 7.30453 13.9176 7.23783 13.8919 7.1496C13.8405 6.97315 13.7512 6.71087 13.603 6.38757C13.3069 5.74177 12.7745 4.84999 11.8343 3.90983C10.8942 2.96968 10.0024 2.43729 9.35665 2.14121C9.03333 1.99299 8.77108 1.90373 8.59457 1.85232C8.5064 1.82663 8.39551 1.80118 8.35343 1.79181C8.04432 1.7403 7.82726 1.44719 7.87738 1.13753Z" fill="#464646"/>
<path fill-rule="evenodd" clip-rule="evenodd" d="M8.04915 3.75739C8.13558 3.45489 8.45085 3.27974 8.75335 3.36616L8.5969 3.91387C8.75335 3.36616 8.75335 3.36616 8.75335 3.36616L8.75449 3.36648L8.75563 3.36682L8.75814 3.36755L8.76406 3.36932L8.7791 3.37399C8.79049 3.37765 8.80485 3.38242 8.82186 3.38848C8.85596 3.40058 8.90108 3.41779 8.95637 3.44149C9.06703 3.48891 9.21817 3.56214 9.40394 3.67205C9.77563 3.89206 10.2831 4.25751 10.8793 4.85369C11.4755 5.44988 11.8409 5.95736 12.061 6.32911C12.1708 6.51481 12.2441 6.666 12.2915 6.77665C12.3152 6.83194 12.3325 6.87702 12.3445 6.91113C12.3506 6.92818 12.3553 6.94248 12.3591 6.95394L12.3637 6.96897L12.3654 6.97485L12.3662 6.97738L12.3665 6.97855C12.3665 6.97855 12.3669 6.97965 11.8191 7.13613L12.3669 6.97965C12.4533 7.28213 12.2781 7.59739 11.9757 7.68382C11.6757 7.76949 11.3632 7.59807 11.2737 7.3003L11.2708 7.29211C11.2668 7.28069 11.2585 7.25823 11.2444 7.22542C11.2163 7.15984 11.1654 7.05258 11.0806 6.90935C10.9112 6.62321 10.6054 6.19087 10.0737 5.65926C9.54217 5.12765 9.10979 4.8218 8.82368 4.65246C8.68044 4.56768 8.5732 4.51672 8.50758 4.48862C8.47477 4.47456 8.45229 4.46618 8.4409 4.46213L8.4327 4.45933C8.13497 4.3698 7.96348 4.0573 8.04915 3.75739Z" fill="#464646"/>
</svg>
