<svg width="65" height="20" viewBox="0 0 65 20" fill="none" xmlns="http://www.w3.org/2000/svg">
<path d="M0 0H65V20H0V0Z" fill="#464646"/>
<path d="M46.7509 2.89563C46.7509 0.368123 43.4146 0.368123 43.4146 2.89563V14.9266M43.4146 14.9266C43.4146 19.0717 36.6408 19.0717 36.6408 14.9266H43.4146Z" stroke="white" stroke-linecap="round"/>
<path d="M40.3838 6.22594L40.3822 6.22729C40.3023 6.29823 40.2649 6.39876 40.2649 6.52243V12.1431C40.2649 12.2735 40.3019 12.3783 40.3822 12.4497L40.3842 12.4514C40.46 12.5105 40.5455 12.5406 40.6394 12.5406C40.7413 12.5406 40.8345 12.5063 40.918 12.4396C41.0061 12.3691 41.0484 12.2682 41.0484 12.1431V6.52243C41.0484 6.39815 41.0065 6.29774 40.9198 6.22735C40.8858 6.19373 40.8472 6.16809 40.8041 6.15086C40.7589 6.13274 40.699 6.12494 40.6278 6.12494C40.5463 6.12494 40.4647 6.16115 40.3838 6.22594Z" fill="white" stroke="white" stroke-width="0.3"/>
<path d="M38.1592 12.5262L38.1632 12.5278L38.1674 12.5285C38.2164 12.5367 38.2724 12.5406 38.3353 12.5406C38.4151 12.5406 38.4962 12.5095 38.5773 12.4527C38.6675 12.3896 38.7097 12.2911 38.7097 12.1661V8.43439C38.7097 8.30982 38.6677 8.21157 38.5783 8.14846C38.5019 8.0893 38.4125 8.05994 38.3122 8.05994C38.2176 8.05994 38.1286 8.09449 38.0461 8.16015C37.9576 8.22267 37.9149 8.31641 37.9149 8.43439V10.7826C37.8997 10.9932 37.8583 11.1762 37.7915 11.332C37.6872 11.5593 37.539 11.7281 37.3473 11.8404C37.1554 11.9531 36.9172 12.0105 36.6307 12.0105C36.291 12.0105 36.0462 11.9275 35.8876 11.769C35.7382 11.6196 35.6575 11.3421 35.6575 10.9222V8.43439C35.6575 8.30982 35.6155 8.21157 35.5261 8.14846C35.4497 8.0893 35.3603 8.05994 35.2602 8.05994C35.1595 8.05994 35.0669 8.08946 34.9836 8.14787L34.982 8.14909C34.9001 8.21278 34.8627 8.31101 34.8627 8.43439V10.8762C34.8627 11.4594 35.0222 11.9128 35.3469 12.2296L35.3476 12.2301C35.4976 12.3722 35.6676 12.4752 35.8577 12.5385L35.8583 12.5387C36.0538 12.6013 36.2461 12.6327 36.435 12.6327C36.6214 12.6327 36.7892 12.6172 36.9385 12.5858L36.9393 12.5856C37.3861 12.4825 37.7129 12.2665 37.9149 11.9362V12.1777C37.9149 12.2894 37.9584 12.3846 38.0433 12.4611L38.0447 12.4623L38.0461 12.4634C38.0799 12.4887 38.1177 12.5096 38.1592 12.5262Z" fill="white" stroke="white" stroke-width="0.3"/>
<path d="M33.7024 6.71234L33.7049 6.71263H33.7073C33.8007 6.71263 33.8763 6.68236 33.9245 6.61506C33.9673 6.55501 33.9896 6.48929 33.9896 6.41879C33.9896 6.34775 33.9738 6.28598 33.9388 6.23693C33.9036 6.18771 33.8519 6.1554 33.7876 6.13807C33.5383 6.06022 33.2811 6.0213 33.0162 6.0213C32.8726 6.0213 32.7295 6.04925 32.5869 6.10467C32.1243 6.28327 31.9045 6.79539 31.9045 7.60512V8.05995H31.346C31.2459 8.05995 31.164 8.08945 31.108 8.1547C31.0558 8.21558 31.0291 8.28629 31.0291 8.36529C31.0291 8.43784 31.0566 8.50449 31.108 8.56438C31.164 8.62963 31.2459 8.65913 31.346 8.65913H31.9045V12.1546C31.9045 12.2723 31.9469 12.3684 32.0331 12.4382C32.0672 12.4718 32.1057 12.4975 32.1487 12.5147L32.151 12.5155C32.2025 12.5327 32.2648 12.5406 32.3366 12.5406C32.4168 12.5406 32.4945 12.5093 32.5687 12.4515L32.5691 12.4511C32.6573 12.3807 32.6995 12.2798 32.6995 12.1546V8.65913H33.4194C33.5259 8.65913 33.6123 8.63032 33.6689 8.56438C33.7202 8.50449 33.7477 8.43784 33.7477 8.36529C33.7477 8.28482 33.716 8.21376 33.6563 8.15351C33.6003 8.08909 33.5188 8.05995 33.4194 8.05995H32.6995V7.95066C32.6995 7.67876 32.7082 7.45658 32.7252 7.28372C32.7424 7.10973 32.7679 6.98958 32.7996 6.91913L32.8002 6.91772L32.8008 6.91624C32.8328 6.82766 32.8831 6.76346 32.9513 6.72088C33.0194 6.67829 33.1084 6.65536 33.221 6.65504L33.7024 6.71234Z" fill="white" stroke="white" stroke-width="0.3"/>
<path d="M29.9545 6.88639L29.9559 6.88505C30.0469 6.79394 30.0944 6.68799 30.0944 6.56853C30.0944 6.44905 30.0469 6.34309 29.9559 6.25198C29.8619 6.15794 29.7312 6.11343 29.5701 6.11343C29.4091 6.11343 29.2785 6.15794 29.1845 6.25198C29.0933 6.34309 29.046 6.44905 29.046 6.56853C29.046 6.68799 29.0933 6.79394 29.1845 6.88505L29.1859 6.88639C29.2801 6.97198 29.4101 7.01207 29.5701 7.01207C29.7302 7.01207 29.8602 6.97198 29.9545 6.88639ZM29.303 8.16094L29.3014 8.16229C29.2217 8.23323 29.1843 8.33376 29.1843 8.45743V12.1431C29.1843 12.2735 29.2211 12.3784 29.3014 12.4498L29.3034 12.4515C29.3794 12.5105 29.4649 12.5406 29.5586 12.5406C29.6607 12.5406 29.7539 12.5064 29.8374 12.4396C29.9253 12.3691 29.9676 12.2682 29.9676 12.1431V8.45743C29.9676 8.32733 29.927 8.2252 29.8382 8.16146C29.8044 8.12828 29.766 8.10295 29.7233 8.08586C29.6781 8.06774 29.6184 8.05994 29.547 8.05994C29.4657 8.05994 29.3841 8.09615 29.303 8.16094Z" fill="white" stroke="white" stroke-width="0.3"/>
<path d="M26.4117 12.2945L26.4123 12.2954C26.5997 12.5237 26.9097 12.6327 27.3305 12.6327C27.6047 12.6327 27.816 12.603 27.96 12.5401C28.0325 12.5084 28.09 12.4676 28.1292 12.416C28.169 12.3639 28.1886 12.303 28.1886 12.2352C28.1886 12.1759 28.1593 12.1174 28.111 12.0605C28.0629 11.9942 27.9877 11.9644 27.8948 11.9644H27.8928L27.891 11.9646L27.4207 12.0105C27.2957 12.0103 27.2011 11.9881 27.1334 11.9477C27.0747 11.9083 27.0217 11.8335 26.9773 11.7157C26.9597 11.6551 26.9455 11.5408 26.936 11.3691C26.9265 11.1974 26.9217 10.9718 26.9217 10.6919V8.67062H27.6761C27.7755 8.67062 27.857 8.64146 27.913 8.57706C27.9729 8.51678 28.0044 8.44573 28.0044 8.36525C28.0044 8.2848 27.9729 8.21372 27.913 8.15347C27.857 8.08905 27.7755 8.05991 27.6761 8.05991H26.9217V6.8334C26.9217 6.73076 26.895 6.64646 26.8345 6.58829C26.7742 6.53038 26.6875 6.505 26.5818 6.505C26.4948 6.505 26.4133 6.5357 26.3381 6.59416C26.2596 6.65528 26.216 6.73885 26.2075 6.84155V6.84306L26.1517 8.05991H25.6373C25.5307 8.05991 25.4444 8.08872 25.3878 8.15466C25.3356 8.21554 25.3089 8.28625 25.3089 8.36525C25.3089 8.44427 25.3356 8.51498 25.3878 8.57586L25.3888 8.57704L25.39 8.57813C25.4529 8.64103 25.537 8.67062 25.6373 8.67062H26.1268V11.0835C26.1268 11.6387 26.2188 12.0456 26.4117 12.2945Z" fill="white" stroke="white" stroke-width="0.3"/>
<path d="M23.6869 12.5262L23.691 12.5278L23.6953 12.5285C23.7441 12.5367 23.8002 12.5406 23.8632 12.5406C23.9431 12.5406 24.0241 12.5095 24.1052 12.4527C24.1954 12.3896 24.2376 12.2911 24.2376 12.1661V8.43439C24.2376 8.30982 24.1956 8.21157 24.106 8.14846C24.0296 8.0893 23.9405 8.05994 23.8402 8.05994C23.7454 8.05994 23.6565 8.09449 23.574 8.16015C23.4855 8.22267 23.4427 8.31641 23.4427 8.43439V10.7826C23.4275 10.9932 23.3862 11.1762 23.3195 11.332C23.215 11.5593 23.0668 11.7281 22.8753 11.8404C22.6832 11.9531 22.445 12.0105 22.1586 12.0105C21.819 12.0105 21.574 11.9275 21.4155 11.769C21.2661 11.6196 21.1854 11.3421 21.1854 10.9222V8.43439C21.1854 8.30982 21.1434 8.21157 21.0539 8.14846C20.9774 8.0893 20.8882 8.05994 20.788 8.05994C20.6874 8.05994 20.5948 8.08946 20.5114 8.14787L20.5098 8.14909C20.4278 8.21278 20.3905 8.31101 20.3905 8.43439V10.8762C20.3905 11.4594 20.5501 11.9128 20.8749 12.2296L20.8753 12.2301C21.0254 12.3722 21.1955 12.4752 21.3856 12.5385L21.3861 12.5387C21.5817 12.6013 21.7739 12.6327 21.9628 12.6327C22.1492 12.6327 22.3172 12.6172 22.4664 12.5858L22.4671 12.5856C22.9139 12.4825 23.2407 12.2665 23.4427 11.9362V12.1777C23.4427 12.2894 23.4863 12.3846 23.5712 12.4611L23.5726 12.4623L23.574 12.4634C23.6078 12.4887 23.6455 12.5096 23.6869 12.5262Z" fill="white" stroke="white" stroke-width="0.3"/>
<path d="M17.6323 9.77613L17.6313 9.77611C16.8071 9.77611 16.1822 9.89817 15.7621 10.1475C15.3387 10.3987 15.1261 10.7778 15.1261 11.2793C15.1261 11.7045 15.2763 12.0393 15.5787 12.2782C15.7212 12.3968 15.8871 12.4836 16.0759 12.5388C16.2636 12.6013 16.4482 12.6328 16.6293 12.6328C16.8158 12.6328 16.9874 12.6172 17.144 12.5859L17.1455 12.5856C17.5786 12.4825 17.8974 12.2695 18.0977 11.9457V12.2007C18.0977 12.3111 18.1365 12.4004 18.217 12.463L18.2181 12.4639L18.2194 12.4647C18.2952 12.5153 18.3798 12.5406 18.4721 12.5406C18.5714 12.5406 18.66 12.5157 18.7365 12.4647L18.7377 12.4639L18.7388 12.463C18.82 12.3999 18.8581 12.3061 18.8581 12.1893C18.8581 12.1893 18.8581 12.1893 18.8581 12.1893L18.8696 9.50574C18.8696 9.24056 18.8268 9.00821 18.7397 8.81011C18.621 8.52543 18.4275 8.31102 18.16 8.16839C17.8933 8.0261 17.555 7.9563 17.1476 7.9563C16.4201 7.9563 15.8635 8.13421 15.4847 8.49674C15.4167 8.55653 15.3795 8.62823 15.3795 8.71085C15.3795 8.78987 15.4061 8.86056 15.4583 8.92144L15.4604 8.92381L15.4627 8.92583C15.5226 8.97717 15.5893 9.00469 15.6618 9.00469C15.703 9.00469 15.7522 8.99341 15.8079 8.97353C15.864 8.95347 15.9292 8.92377 16.0031 8.88484L16.0046 8.88406C16.1485 8.80071 16.3001 8.72868 16.4594 8.66802L16.4597 8.66792C16.5904 8.61709 16.8104 8.59004 17.1246 8.59004C17.4573 8.59004 17.6993 8.66388 17.8579 8.80447C18.0156 8.94421 18.0977 9.15612 18.0977 9.44799V9.7867L17.6323 9.77613ZM17.7083 11.6866L17.7079 11.687C17.4703 11.9023 17.1811 12.0103 16.8377 12.0106C16.5509 11.9953 16.3378 11.9313 16.1934 11.8232C16.0113 11.6774 15.9211 11.4895 15.9211 11.2563C15.9211 11.109 15.9542 10.982 16.019 10.874C16.0837 10.7661 16.1814 10.6749 16.3141 10.601C16.4331 10.5416 16.5676 10.4967 16.7177 10.4667C16.877 10.4364 17.0363 10.4174 17.1956 10.4098C17.3639 10.4022 17.5283 10.3983 17.6889 10.3983C17.8403 10.3983 17.9766 10.3953 18.0977 10.3891V10.7372C18.0825 11.159 17.951 11.4733 17.7083 11.6866Z" fill="white"/>
<path d="M18.8581 12.1893C18.8581 12.3061 18.82 12.3999 18.7388 12.463L18.7377 12.4639L18.7365 12.4647C18.66 12.5157 18.5714 12.5406 18.4721 12.5406C18.3798 12.5406 18.2952 12.5153 18.2194 12.4647L18.2181 12.4639L18.217 12.463C18.1365 12.4004 18.0977 12.3111 18.0977 12.2007V11.9457C17.8974 12.2695 17.5786 12.4825 17.1455 12.5856L17.144 12.5859C16.9874 12.6172 16.8158 12.6328 16.6293 12.6328C16.4482 12.6328 16.2636 12.6013 16.0759 12.5388C15.8871 12.4836 15.7212 12.3968 15.5787 12.2782C15.2763 12.0393 15.1261 11.7045 15.1261 11.2793C15.1261 10.7778 15.3387 10.3987 15.7621 10.1475C16.1822 9.89817 16.8071 9.77611 17.6313 9.77611L17.6323 9.77613L18.0977 9.7867V9.44799C18.0977 9.15612 18.0156 8.94421 17.8579 8.80447C17.6993 8.66388 17.4573 8.59004 17.1246 8.59004C16.8104 8.59004 16.5904 8.61709 16.4597 8.66792L16.4594 8.66802C16.3001 8.72868 16.1485 8.80071 16.0046 8.88406L16.0031 8.88484C15.9292 8.92377 15.864 8.95347 15.8079 8.97353C15.7522 8.99341 15.703 9.00469 15.6618 9.00469C15.5893 9.00469 15.5226 8.97717 15.4627 8.92583L15.4604 8.92381L15.4583 8.92144C15.4061 8.86056 15.3795 8.78987 15.3795 8.71085C15.3795 8.62823 15.4167 8.55653 15.4847 8.49674C15.8635 8.13421 16.4201 7.9563 17.1476 7.9563C17.555 7.9563 17.8933 8.0261 18.16 8.16839C18.4275 8.31102 18.621 8.52543 18.7397 8.81011C18.8268 9.00821 18.8696 9.24056 18.8696 9.50574L18.8581 12.1893ZM18.8581 12.1893C18.8581 12.1893 18.8581 12.1893 18.8581 12.1893ZM17.7083 11.6866L17.7079 11.687C17.4703 11.9023 17.1811 12.0103 16.8377 12.0106C16.5509 11.9953 16.3378 11.9313 16.1934 11.8232C16.0113 11.6774 15.9211 11.4895 15.9211 11.2563C15.9211 11.109 15.9542 10.982 16.019 10.874C16.0837 10.7661 16.1814 10.6749 16.3141 10.601C16.4331 10.5416 16.5676 10.4967 16.7177 10.4667C16.877 10.4364 17.0363 10.4174 17.1956 10.4098C17.3639 10.4022 17.5283 10.3983 17.6889 10.3983C17.8403 10.3983 17.9766 10.3953 18.0977 10.3891V10.7372C18.0825 11.159 17.951 11.4733 17.7083 11.6866Z" stroke="white" stroke-width="0.3"/>
<path d="M14.2509 10.1621L14.2509 10.1611C14.2354 9.50918 14.0567 8.98475 13.711 8.592L13.7109 8.59184C13.3329 8.16661 12.7948 7.9563 12.1027 7.9563C11.439 7.9563 10.9052 8.1951 10.5053 8.67336C10.1375 9.11161 9.95454 9.65487 9.95454 10.3003C9.95454 10.9929 10.1728 11.564 10.611 12.0101C11.0111 12.4258 11.5327 12.6328 12.1718 12.6328C12.8568 12.6328 13.4313 12.4184 13.8925 11.9884L13.8936 11.9875C13.9631 11.9179 13.9975 11.8306 13.9975 11.7285C13.9975 11.6704 13.9732 11.6155 13.9306 11.5644C13.8833 11.5077 13.8173 11.4807 13.7383 11.4807C13.6665 11.4807 13.5971 11.5077 13.5307 11.5572C13.0671 11.861 12.6336 12.0106 12.2294 12.0106C11.8481 12.0106 11.5121 11.8801 11.2198 11.6178C10.9542 11.3809 10.8067 10.9966 10.7854 10.4559H13.9225C14.0275 10.4559 14.1131 10.4318 14.17 10.375L14.1711 10.3739L14.1721 10.3727C14.2243 10.3118 14.2509 10.2411 14.2509 10.1621ZM13.0864 8.95689C13.3015 9.19356 13.4284 9.51159 13.4641 9.91433H10.8109C10.8472 9.5498 10.9773 9.24262 11.2001 8.99106C11.4378 8.72367 11.7414 8.59004 12.1143 8.59004C12.5439 8.59004 12.8657 8.71415 13.0864 8.95689Z" fill="white" stroke="white" stroke-width="0.3"/>
<path d="M4.09363 6.27388L4.09205 6.27534L4.09063 6.27695C4.02907 6.34732 4 6.43813 4 6.54546V12.1201C4 12.1798 4.01286 12.236 4.03882 12.2879C4.07977 12.3698 4.13315 12.4335 4.19992 12.4765C4.26684 12.5197 4.34475 12.5406 4.43204 12.5406H6.56282C7.26848 12.5406 7.82459 12.3582 8.22576 11.9886L8.22627 11.9881C8.39925 11.823 8.52203 11.6373 8.59348 11.4311C8.67177 11.2196 8.71102 11.0038 8.71102 10.784C8.71102 10.5646 8.67576 10.3638 8.6046 10.1819C8.40368 9.66115 7.97198 9.33223 7.32004 9.19109C7.63141 9.10218 7.88881 8.93941 8.09091 8.70249L8.0912 8.70213C8.32718 8.41895 8.44612 8.10279 8.44612 7.75482C8.44612 7.25953 8.26064 6.86366 7.88954 6.57144C7.51998 6.27273 7.0459 6.12494 6.47068 6.12494H4.43204C4.3119 6.12494 4.19888 6.17672 4.09363 6.27388ZM6.15971 11.8493H4.86409V9.55748H5.8372C6.12779 9.55748 6.39514 9.56894 6.63927 9.59183C7.03729 9.63737 7.32979 9.75432 7.52259 9.93794C7.71446 10.1207 7.81238 10.374 7.81238 10.7034C7.81238 11.1312 7.6705 11.4313 7.39316 11.6139C7.14993 11.7685 6.74143 11.8493 6.15971 11.8493ZM6.11363 6.81626C6.60532 6.81626 6.96682 6.90414 7.20451 7.07364C7.43966 7.24137 7.55898 7.49289 7.55898 7.83546C7.55898 8.03776 7.52156 8.20312 7.44913 8.33368C7.22905 8.70741 6.79748 8.90071 6.13666 8.90071H4.86409V6.81626H6.11363Z" fill="white" stroke="white" stroke-width="0.3"/>
<path d="M57.5134 12.4784L57.514 12.4788C57.7213 12.5824 57.9932 12.6328 58.3269 12.6328C58.9529 12.6328 59.4377 12.3972 59.7762 11.9251C59.9329 11.7134 60.0464 11.4708 60.1167 11.1976C60.1944 10.9176 60.2332 10.6262 60.2332 10.3233C60.2332 10.0207 60.1982 9.7295 60.1283 9.44969C60.0581 9.1689 59.9449 8.91861 59.7884 8.69927C59.6387 8.47911 59.4422 8.30232 59.1994 8.16899C58.9636 8.02764 58.7185 7.9563 58.4652 7.9563C58.2256 7.9563 58.0264 7.97557 57.8685 8.01496C57.3939 8.11824 57.04 8.33773 56.811 8.675C56.8152 8.50606 56.7972 8.36996 56.7545 8.26898C56.7262 8.20207 56.6866 8.14918 56.6344 8.11317C56.5819 8.07707 56.5196 8.05997 56.4494 8.05997C56.3208 8.05997 56.2122 8.08811 56.1269 8.1479L56.1267 8.14786L56.1251 8.14912C56.044 8.21226 56.006 8.30609 56.006 8.4229V13.8593C56.006 13.9761 56.044 14.0699 56.1251 14.1331L56.1269 14.1343C56.2102 14.1927 56.3028 14.2222 56.4033 14.2222C56.5036 14.2222 56.593 14.1929 56.6692 14.1337C56.758 14.0712 56.8008 13.9774 56.8008 13.8593V11.9011C56.977 12.1301 57.215 12.3224 57.5134 12.4784ZM57.1278 11.4869H57.128L57.1274 11.4862C57.0154 11.3292 56.9329 11.1496 56.8803 10.9467C56.8273 10.7429 56.8008 10.5275 56.8008 10.3003C56.8008 10.0649 56.8237 9.84121 56.8692 9.62923C56.9143 9.41821 56.9857 9.23878 57.0821 9.09014C57.1854 8.93521 57.3258 8.81314 57.5041 8.72399C57.6816 8.63529 57.8976 8.59004 58.1542 8.59004C58.41 8.59004 58.6126 8.64273 58.7652 8.7445C59.187 9.0258 59.4036 9.53567 59.4036 10.2888C59.4036 10.7676 59.3124 11.1592 59.1328 11.4661C58.9177 11.8295 58.5934 12.0106 58.1542 12.0106C57.7059 12.0106 57.3656 11.836 57.1278 11.4869Z" fill="white" stroke="white" stroke-width="0.3"/>
<path d="M53.9923 12.5262L53.9963 12.5278L54.0006 12.5285C54.0495 12.5367 54.1055 12.5406 54.1686 12.5406C54.2485 12.5406 54.3293 12.5095 54.4106 12.4527C54.5006 12.3896 54.5431 12.2911 54.5431 12.1661V8.43439C54.5431 8.30982 54.501 8.21157 54.4114 8.14846C54.335 8.0893 54.2458 8.05994 54.1455 8.05994C54.0507 8.05994 53.9617 8.09449 53.8792 8.16015C53.7907 8.22267 53.748 8.31641 53.748 8.43439V10.7826C53.7329 10.9932 53.6914 11.1762 53.6247 11.332C53.5203 11.5593 53.3721 11.7281 53.1806 11.8404C52.9886 11.9531 52.7504 12.0105 52.4638 12.0105C52.1243 12.0105 51.8793 11.9275 51.7208 11.769C51.5715 11.6196 51.4909 11.3421 51.4909 10.9222V8.43439C51.4909 8.30982 51.4488 8.21157 51.3592 8.14846C51.2828 8.0893 51.1936 8.05994 51.0933 8.05994C50.9926 8.05994 50.9002 8.08946 50.8167 8.14787L50.8151 8.14909C50.7332 8.21278 50.6958 8.31101 50.6958 8.43439V10.8762C50.6958 11.4594 50.8553 11.9128 51.1803 12.2296L51.1807 12.2301C51.3307 12.3722 51.5008 12.4752 51.691 12.5385L51.6914 12.5387C51.887 12.6013 52.0793 12.6327 52.2681 12.6327C52.4545 12.6327 52.6226 12.6172 52.7716 12.5858L52.7724 12.5856C53.2193 12.4825 53.546 12.2665 53.748 11.9362V12.1777C53.748 12.2894 53.7915 12.3846 53.8766 12.4611L53.8778 12.4623L53.8795 12.4634C53.913 12.4887 53.9508 12.5096 53.9923 12.5262Z" fill="white" stroke="white" stroke-width="0.3"/>
<path d="M45.0961 9.45855L45.0959 9.4595C45.0103 9.74707 44.9675 10.0312 44.9675 10.3118C44.9675 10.9271 45.1506 11.4585 45.518 11.9039C45.9184 12.3909 46.4838 12.6328 47.2076 12.6328C47.9168 12.6328 48.4815 12.3907 48.897 11.9045L48.8972 11.9042C49.265 11.4662 49.448 10.9307 49.448 10.3003C49.448 9.66241 49.265 9.12672 48.897 8.69609C48.474 8.20256 47.9095 7.9563 47.2076 7.9563C46.491 7.9563 45.9263 8.20223 45.5183 8.69633C45.3304 8.91554 45.1897 9.16977 45.0961 9.45855ZM46.1356 9.15962L46.1358 9.15943C46.3891 8.77924 46.745 8.59004 47.2076 8.59004C47.6784 8.59004 48.0338 8.77936 48.2795 9.15885C48.4898 9.48959 48.5955 9.86962 48.5955 10.3003C48.5955 10.7388 48.4898 11.1186 48.2797 11.4413C48.0261 11.8214 47.6705 12.0106 47.2076 12.0106C46.7529 12.0106 46.3968 11.8215 46.1354 11.4407C46.0229 11.2759 45.9404 11.0921 45.8879 10.8891C45.8347 10.6846 45.8084 10.4922 45.8084 10.3118C45.8084 9.8657 45.918 9.48223 46.1356 9.15962Z" fill="white" stroke="white" stroke-width="0.3"/>
</svg>
