<svg width="38" height="20" viewBox="0 0 38 20" fill="none" xmlns="http://www.w3.org/2000/svg">
<path d="M38 0H0V20H38V0Z" fill="#464646"/>
<path d="M30.1701 14.9474H30.27V14.8433V6.55465H32.8336H32.9335V6.45061V5.54891V5.44487H32.8336H26.2845H25.1094H23.8858C23.819 5.43321 23.7554 5.42148 23.6934 5.41004C23.3932 5.35463 23.1305 5.30615 22.7123 5.30615C22.1326 5.30615 21.5856 5.44742 21.1864 5.62679C20.7352 5.82956 20.4857 6.08855 20.2336 6.45989C20.0331 6.75525 19.8823 7.17724 19.8823 7.69912C19.8823 8.07617 19.9165 8.33995 19.9852 8.62606L19.9866 8.63182L19.9886 8.63737C20.0696 8.86259 20.2156 9.16514 20.3739 9.39785L14.5553 9.3794V6.55465H18.1177H18.2176V6.45061V5.54891V5.44487H18.1177H13.39H13.2901V5.54891V13.8376H11.0482L9.14566 10.6667C9.39355 10.5743 9.60577 10.4921 9.85089 10.3165L9.85142 10.3162C10.132 10.1124 10.4919 9.80472 10.6808 9.44883C10.8676 9.09668 10.9596 8.69945 10.9596 8.18465C10.9596 7.58162 10.8961 7.09373 10.6449 6.67309C10.3992 6.26186 10.05 5.91203 9.53772 5.70935C9.03807 5.4996 8.41536 5.44487 7.6635 5.44487H5.26635H5.16647V5.54891V14.8433V14.9474H5.26635H6.33175H6.43164V14.8433V10.9938H8.04075L10.2421 14.6901L10.2482 14.7003L10.2564 14.7089L11.0554 15.5412L11.1069 15.5948L11.1717 15.5601L12.3155 14.9474H18.1177H18.2176V14.8433V13.8716V13.7676H18.1177H14.5553V10.5083H21.9959C22.5301 10.7072 23.0627 11.0063 23.3611 11.1877L23.3625 11.1886L23.364 11.1894C23.6572 11.3545 23.8395 11.5775 23.9593 11.7772C24.0723 11.9655 24.1106 12.1539 24.1106 12.4504C24.1106 12.7588 24.0942 12.9898 23.9619 13.1888C23.8163 13.4079 23.6867 13.5586 23.4085 13.6713C23.1176 13.7891 22.7153 13.8723 22.2795 13.8723C21.8103 13.8723 21.3238 13.7806 20.8715 13.6672C20.4244 13.5529 20.2174 13.4974 19.9229 13.361L19.7824 13.296V13.4561V14.4619V14.5274L19.8392 14.5557C19.8908 14.5814 19.9361 14.6078 19.9813 14.6341C20.0873 14.6959 20.1927 14.7571 20.3779 14.8086L20.3795 14.809L20.381 14.8094C20.6384 14.872 20.9207 14.921 21.2276 14.9565H21.2279C21.5438 14.9921 21.8721 15.0098 22.2129 15.0098C22.8805 15.0098 23.4635 14.9029 23.9592 14.6855C24.4765 14.4625 24.7951 14.0433 25.0579 13.6548L25.0582 13.6543L25.0585 13.6539C25.1946 13.4481 25.2834 13.257 25.3374 13.0422C25.391 12.8288 25.4091 12.5968 25.4091 12.3117C25.4091 11.8055 25.3338 11.4927 25.1282 11.1478C24.9352 10.81 24.6486 10.4839 24.2624 10.246C23.8931 10.0046 23.4493 9.78218 22.9136 9.5784C22.5597 9.43849 22.2816 9.26329 22.0405 9.11146C21.9547 9.05742 21.8736 9.0063 21.7955 8.96087C21.553 8.81972 21.3984 8.58937 21.2728 8.3799C21.1632 8.19727 21.1475 7.98253 21.1475 7.66444C21.1475 7.442 21.1937 7.28233 21.3097 7.09699L21.3102 7.09616L21.3107 7.09533C21.4232 6.90781 21.612 6.75894 21.853 6.65012C22.0917 6.54238 22.3442 6.48529 22.7123 6.48529C23.1018 6.48529 23.4662 6.52663 23.8195 6.62077L23.82 6.62091C23.8905 6.63925 23.9549 6.65548 24.0151 6.67063C24.2764 6.7365 24.4577 6.78217 24.7036 6.89292L24.7978 6.93537L24.836 6.83606L24.944 6.55465H26.2845H29.0059L29.0053 14.8433V14.9474H29.1052H30.1701ZM9.44231 9.13684L9.44167 9.13795L9.44106 9.13906C9.30999 9.38002 9.08467 9.58575 8.79018 9.71865C8.48681 9.84669 8.136 9.95336 7.6635 9.95336H6.43164V6.55465H7.59692C8.08229 6.55465 8.4851 6.64618 8.79646 6.75713C9.09134 6.86222 9.30023 7.06828 9.4426 7.29897L9.44327 7.30008L9.44397 7.30112C9.58941 7.5244 9.66712 7.83118 9.66712 8.23112C9.66712 8.60858 9.58435 8.89026 9.44231 9.13684Z" fill="white" stroke="white" stroke-width="0.5"/>
<path d="M6.32967 3.29846H6.31717C6.29429 3.33531 6.26723 3.37053 6.23602 3.40413C6.20585 3.43664 6.17047 3.46536 6.1299 3.49029C6.09036 3.51522 6.04562 3.53472 5.99568 3.54881C5.94574 3.5629 5.88956 3.56995 5.82714 3.56995C5.73038 3.56995 5.64194 3.55044 5.56182 3.51142C5.48171 3.47241 5.41304 3.41443 5.35582 3.33748C5.2986 3.25945 5.25438 3.16299 5.22316 3.04811C5.19195 2.93323 5.17635 2.79993 5.17635 2.6482C5.17635 2.49539 5.19195 2.36154 5.22316 2.24666C5.25438 2.1307 5.2986 2.0337 5.35582 1.95567C5.41304 1.87763 5.48171 1.81911 5.56182 1.7801C5.64194 1.73999 5.73038 1.71995 5.82714 1.71995C5.88852 1.71995 5.94418 1.72699 5.99412 1.74108C6.04406 1.75517 6.0888 1.77413 6.12834 1.79798C6.16892 1.82182 6.20481 1.84946 6.23602 1.88089C6.26723 1.91231 6.29429 1.94537 6.31717 1.98005H6.3359C6.33278 1.9432 6.32967 1.90798 6.32654 1.87438C6.32446 1.84621 6.32238 1.81748 6.3203 1.78822C6.31822 1.75788 6.31717 1.73404 6.31717 1.71669V1.0079H6.60122V3.53743H6.3718L6.32967 3.29846ZM5.88176 3.32447C5.96083 3.32447 6.02742 3.31201 6.08152 3.28708C6.13666 3.26215 6.18088 3.22422 6.21418 3.17328C6.24851 3.12235 6.27348 3.05895 6.28909 2.98308C6.30573 2.90613 6.3151 2.81673 6.31717 2.71485V2.6482C6.31717 2.53874 6.3099 2.44174 6.29533 2.35721C6.2818 2.27159 6.25787 2.20006 6.22354 2.14262C6.19024 2.0841 6.1455 2.0402 6.08932 2.01094C6.03314 1.98059 5.96291 1.96542 5.87863 1.96542C5.73818 1.96542 5.63465 2.02449 5.56807 2.14262C5.50252 2.26075 5.46975 2.43036 5.46975 2.65145C5.46975 2.87796 5.50252 3.04703 5.56807 3.15866C5.63465 3.2692 5.73922 3.32447 5.88176 3.32447ZM7.1196 4.33725C7.06966 4.33725 7.02856 4.33347 6.99631 4.32588C6.96301 4.31829 6.9344 4.30854 6.91047 4.29661V4.05602C6.93752 4.06685 6.9651 4.07498 6.99318 4.0804C7.02128 4.08691 7.05353 4.09016 7.08995 4.09016C7.11803 4.09016 7.14405 4.08582 7.16798 4.07715C7.19191 4.06957 7.21272 4.05493 7.2304 4.03326C7.24913 4.01267 7.26318 3.98449 7.27254 3.94872C7.28295 3.91404 7.28815 3.86906 7.28815 3.8138V1.75246H7.57218V3.79428C7.57218 3.87773 7.56334 3.95252 7.54565 4.01863C7.52797 4.08582 7.50039 4.14272 7.46294 4.18932C7.42548 4.237 7.37815 4.27332 7.32092 4.29824C7.26474 4.32425 7.19763 4.33725 7.1196 4.33725ZM7.2663 1.26964C7.2663 1.20461 7.28191 1.15747 7.31312 1.1282C7.34537 1.09895 7.3849 1.08431 7.43173 1.08431C7.45461 1.08431 7.47594 1.08811 7.49571 1.09569C7.51652 1.10219 7.53421 1.11304 7.54878 1.1282C7.56438 1.14338 7.57634 1.16289 7.58467 1.18673C7.59404 1.20949 7.59872 1.23712 7.59872 1.26964C7.59872 1.33249 7.58207 1.37964 7.54878 1.41107C7.51652 1.44141 7.47751 1.45659 7.43173 1.45659C7.3849 1.45659 7.34537 1.44141 7.31312 1.41107C7.28191 1.38072 7.2663 1.33358 7.2663 1.26964ZM9.22516 3.53743L9.16741 3.29033H9.15493C9.12059 3.3391 9.08626 3.38137 9.05192 3.41713C9.01759 3.45181 8.98013 3.48054 8.93956 3.50329C8.89898 3.52605 8.85372 3.54285 8.80378 3.55369C8.75384 3.56452 8.6961 3.56995 8.63055 3.56995C8.55876 3.56995 8.49269 3.55911 8.43235 3.53743C8.372 3.51684 8.31946 3.48487 8.27473 3.44152C8.23102 3.39709 8.19669 3.34181 8.17172 3.2757C8.14675 3.20851 8.13427 3.12939 8.13427 3.03836C8.13427 2.86062 8.19409 2.72406 8.31374 2.62869C8.43443 2.53331 8.61754 2.48129 8.86309 2.47262L9.15024 2.46125V2.34908C9.15024 2.27646 9.14244 2.21577 9.12683 2.167C9.11227 2.11823 9.09042 2.07922 9.06129 2.04996C9.0332 2.01961 8.99782 1.99793 8.95516 1.98493C8.91355 1.97192 8.86569 1.96542 8.81159 1.96542C8.72523 1.96542 8.6446 1.97842 8.56969 2.00443C8.49582 2.03044 8.42455 2.06188 8.35588 2.09872L8.25599 1.87601C8.33299 1.83266 8.41882 1.79581 8.5135 1.76546C8.60818 1.73512 8.70754 1.71995 8.81159 1.71995C8.91771 1.71995 9.00927 1.73132 9.08626 1.75409C9.16429 1.77576 9.22828 1.81098 9.27822 1.85975C9.3292 1.90744 9.36717 1.96867 9.39214 2.04345C9.41711 2.11823 9.4296 2.20873 9.4296 2.31494V3.53743H9.22516ZM8.7039 3.33097C8.76737 3.33097 8.82615 3.32068 8.88025 3.30008C8.93435 3.27949 8.98117 3.2486 9.02071 3.20742C9.06025 3.16516 9.09094 3.11259 9.11279 3.04974C9.13568 2.98579 9.14712 2.91102 9.14712 2.8254V2.66446L8.92395 2.67583C8.83031 2.68017 8.75176 2.69101 8.68829 2.70835C8.62483 2.72569 8.57385 2.75007 8.53535 2.7815C8.49789 2.81185 8.47085 2.84924 8.4542 2.89367C8.43755 2.93703 8.42923 2.98633 8.42923 3.04161C8.42923 3.14132 8.4542 3.21447 8.50414 3.26107C8.55512 3.30767 8.62171 3.33097 8.7039 3.33097ZM11.1715 3.53743V2.38809C11.1715 2.2472 11.144 2.14153 11.0888 2.07109C11.0347 2.00065 10.9494 1.96542 10.8329 1.96542C10.7486 1.96542 10.6778 1.97951 10.6206 2.00769C10.5634 2.03587 10.5171 2.07759 10.4817 2.13286C10.4474 2.18814 10.4224 2.25587 10.4068 2.33607C10.3922 2.41627 10.385 2.50839 10.385 2.61244V3.53743H10.1009V1.75246H10.3319L10.3725 1.99306H10.3881C10.4141 1.94645 10.4448 1.90636 10.4802 1.87276C10.5166 1.83808 10.5561 1.80935 10.5988 1.7866C10.6414 1.76384 10.6867 1.74704 10.7345 1.7362C10.7824 1.72536 10.8313 1.71995 10.8813 1.71995C11.0716 1.71995 11.2147 1.77197 11.3104 1.87601C11.4072 1.97896 11.4556 2.14425 11.4556 2.37183V3.53743H11.1715ZM13.4472 1.75246V1.93616L13.1398 1.98005C13.1689 2.01799 13.1933 2.06675 13.2131 2.12636C13.2329 2.18488 13.2427 2.25153 13.2427 2.32632C13.2427 2.40869 13.2303 2.48509 13.2053 2.55554C13.1814 2.6249 13.1444 2.68504 13.0945 2.73598C13.0456 2.78692 12.9847 2.82702 12.9119 2.85628C12.8391 2.88446 12.7542 2.89855 12.6575 2.89855C12.6346 2.89855 12.6117 2.89855 12.5888 2.89855C12.5659 2.89746 12.5472 2.8953 12.5326 2.89205C12.515 2.90289 12.4973 2.91534 12.4796 2.92944C12.4629 2.94244 12.4473 2.95761 12.4328 2.97495C12.4192 2.99229 12.4078 3.0118 12.3985 3.03348C12.3901 3.05516 12.3859 3.07899 12.3859 3.10501C12.3859 3.13427 12.3922 3.15811 12.4047 3.17654C12.4172 3.19388 12.4338 3.20742 12.4546 3.21718C12.4765 3.22693 12.5019 3.23343 12.5311 3.23669C12.5602 3.23993 12.5909 3.24156 12.6232 3.24156H12.8979C12.9946 3.24156 13.0763 3.25457 13.1428 3.28058C13.2094 3.3055 13.2636 3.33964 13.3052 3.38299C13.3479 3.42634 13.3785 3.47782 13.3973 3.53743C13.416 3.59596 13.4254 3.65827 13.4254 3.72438C13.4254 3.81975 13.4082 3.90537 13.3738 3.98123C13.3405 4.0571 13.2891 4.12105 13.2194 4.17307C13.1496 4.22617 13.0612 4.26681 12.954 4.29499C12.8479 4.32317 12.7225 4.33725 12.5779 4.33725C12.4666 4.33725 12.3693 4.32588 12.2861 4.30312C12.2028 4.28036 12.1336 4.24731 12.0785 4.20395C12.0234 4.1606 11.9818 4.10804 11.9537 4.04626C11.9266 3.98557 11.9131 3.91676 11.9131 3.83981C11.9131 3.77478 11.923 3.71734 11.9427 3.66748C11.9635 3.61872 11.9911 3.57645 12.0254 3.54069C12.0598 3.50492 12.0994 3.47566 12.144 3.45289C12.1898 3.43014 12.2372 3.4128 12.2861 3.40087C12.2424 3.38029 12.2065 3.34777 12.1784 3.30334C12.1503 3.2589 12.1362 3.20797 12.1362 3.15053C12.1362 3.08442 12.1529 3.02751 12.1862 2.97983C12.2195 2.93106 12.272 2.88392 12.3438 2.8384C12.2991 2.81889 12.258 2.79234 12.2205 2.75874C12.1841 2.72406 12.1529 2.68504 12.1269 2.64169C12.1019 2.59726 12.0822 2.54903 12.0676 2.49701C12.0541 2.44499 12.0473 2.39135 12.0473 2.33607C12.0473 2.23962 12.0603 2.15346 12.0863 2.07759C12.1123 2.00173 12.1508 1.93724 12.2018 1.88414C12.2528 1.83103 12.3162 1.79039 12.3922 1.76221C12.4682 1.73404 12.5566 1.71995 12.6575 1.71995C12.696 1.71995 12.7355 1.7232 12.7761 1.7297C12.8178 1.73512 12.8526 1.74271 12.8807 1.75246H13.4472ZM12.1815 3.83005C12.1815 3.87015 12.1882 3.90754 12.2018 3.94222C12.2153 3.9769 12.2372 4.0067 12.2674 4.03163C12.2986 4.05656 12.3391 4.07607 12.3891 4.09016C12.4401 4.10533 12.503 4.11292 12.5779 4.11292C12.7714 4.11292 12.916 4.08149 13.0118 4.01863C13.1086 3.95685 13.1569 3.86744 13.1569 3.75039C13.1569 3.70054 13.1507 3.6599 13.1382 3.62847C13.1257 3.59704 13.1049 3.57211 13.0758 3.55369C13.0477 3.53635 13.0102 3.52443 12.9634 3.51793C12.9166 3.51142 12.8594 3.50817 12.7917 3.50817H12.5171C12.4806 3.50817 12.4427 3.5125 12.4031 3.52117C12.3636 3.52984 12.3271 3.5461 12.2939 3.56995C12.2616 3.59379 12.2346 3.6263 12.2128 3.66748C12.1919 3.70975 12.1815 3.76394 12.1815 3.83005ZM12.3251 2.32632C12.3251 2.45095 12.3532 2.54361 12.4094 2.60431C12.4656 2.665 12.5452 2.69534 12.6482 2.69534C12.7522 2.69534 12.8307 2.66554 12.8838 2.60593C12.9379 2.54524 12.965 2.45041 12.965 2.32144C12.965 2.18814 12.9374 2.09005 12.8822 2.0272C12.8282 1.96434 12.749 1.93291 12.645 1.93291C12.542 1.93291 12.4629 1.96542 12.4078 2.03044C12.3527 2.09547 12.3251 2.1941 12.3251 2.32632ZM15.3249 2.64169C15.3249 2.79017 15.3072 2.92239 15.2718 3.03836C15.2375 3.15323 15.1875 3.25023 15.122 3.32935C15.0575 3.40738 14.979 3.46699 14.8864 3.50817C14.7937 3.54936 14.6897 3.56995 14.5742 3.56995C14.4671 3.56995 14.3683 3.54936 14.2777 3.50817C14.1872 3.46699 14.1086 3.40738 14.042 3.32935C13.9765 3.25023 13.925 3.15323 13.8876 3.03836C13.8511 2.92239 13.833 2.79017 13.833 2.64169C13.833 2.4943 13.8501 2.36371 13.8844 2.24991C13.9198 2.13503 13.9697 2.03857 14.0343 1.96054C14.0988 1.88143 14.1773 1.82182 14.2699 1.78172C14.3635 1.74054 14.4681 1.71995 14.5836 1.71995C14.6907 1.71995 14.7896 1.74054 14.8801 1.78172C14.9707 1.82182 15.0486 1.88143 15.1142 1.96054C15.1808 2.03857 15.2323 2.13503 15.2687 2.24991C15.3062 2.36371 15.3249 2.4943 15.3249 2.64169ZM14.1263 2.64169C14.1263 2.86821 14.1617 3.0389 14.2325 3.15378C14.3043 3.26757 14.4203 3.32447 14.5805 3.32447C14.7407 3.32447 14.8557 3.26757 14.9254 3.15378C14.9961 3.0389 15.0315 2.86821 15.0315 2.64169C15.0315 2.41519 14.9956 2.24612 14.9238 2.13449C14.8531 2.02177 14.7376 1.96542 14.5773 1.96542C14.4171 1.96542 14.3017 2.02177 14.2309 2.13449C14.1612 2.24612 14.1263 2.41519 14.1263 2.64169Z" fill="white"/>
<path d="M17.0029 17.2347H16.6206V18.7969H16.335V17.2347H16.0322V17.1128L16.335 17.0022V16.8462C16.335 16.7302 16.3464 16.6343 16.3693 16.5584C16.3932 16.4815 16.427 16.4202 16.4708 16.3747C16.5155 16.3292 16.5701 16.2972 16.6346 16.2788C16.6991 16.2593 16.7719 16.2495 16.8531 16.2495C16.9145 16.2495 16.9706 16.256 17.0216 16.2691C17.0736 16.281 17.12 16.2945 17.1605 16.3097L17.0872 16.5389C17.0549 16.527 17.0196 16.5167 16.9811 16.508C16.9436 16.4982 16.904 16.4934 16.8624 16.4934C16.8208 16.4934 16.7849 16.4988 16.7548 16.5096C16.7246 16.5194 16.6996 16.5373 16.6798 16.5633C16.6601 16.5893 16.645 16.6251 16.6346 16.6706C16.6252 16.715 16.6206 16.7724 16.6206 16.8429V17.012H17.0029V17.2347ZM18.1955 16.9795C18.2257 16.9795 18.2595 16.9811 18.2969 16.9843C18.3344 16.9865 18.3666 16.9903 18.3937 16.9957L18.3562 17.2688C18.3271 17.2634 18.2969 17.2591 18.2657 17.2558C18.2355 17.2515 18.207 17.2494 18.1799 17.2494C18.1143 17.2494 18.0545 17.2634 18.0004 17.2916C17.9463 17.3187 17.8995 17.3583 17.86 17.4103C17.8215 17.4612 17.7913 17.523 17.7694 17.5956C17.7486 17.6671 17.7382 17.7467 17.7382 17.8346V18.7969H17.4542V17.012H17.6852L17.7195 17.3388H17.732C17.758 17.2922 17.7856 17.2471 17.8147 17.2038C17.8449 17.1604 17.8782 17.1225 17.9146 17.09C17.9521 17.0564 17.9937 17.0298 18.0394 17.0103C18.0852 16.9897 18.1372 16.9795 18.1955 16.9795ZM19.8095 18.7969L19.7517 18.5499H19.7392C19.7049 18.5986 19.6706 18.6409 19.6362 18.6767C19.6019 18.7114 19.5644 18.7401 19.5239 18.7628C19.4832 18.7856 19.438 18.8024 19.3881 18.8132C19.3381 18.8241 19.2804 18.8295 19.2148 18.8295C19.143 18.8295 19.077 18.8186 19.0167 18.7969C18.9563 18.7763 18.9037 18.7444 18.859 18.701C18.8153 18.6566 18.781 18.6013 18.756 18.5352C18.7311 18.468 18.7186 18.3889 18.7186 18.2979C18.7186 18.1201 18.7784 17.9835 18.898 17.8882C19.0187 17.7928 19.2018 17.7408 19.4474 17.7321L19.7345 17.7207V17.6086C19.7345 17.536 19.7268 17.4753 19.7111 17.4265C19.6966 17.3777 19.6747 17.3388 19.6456 17.3095C19.6175 17.2791 19.5821 17.2575 19.5394 17.2444C19.4978 17.2315 19.4499 17.2249 19.3959 17.2249C19.3095 17.2249 19.2289 17.2379 19.154 17.2639C19.0801 17.2899 19.0088 17.3214 18.9402 17.3583L18.8403 17.1355C18.9172 17.0922 19.0031 17.0554 19.0978 17.025C19.1925 16.9947 19.2918 16.9795 19.3959 16.9795C19.502 16.9795 19.5936 16.9908 19.6706 17.0136C19.7486 17.0353 19.8126 17.0705 19.8625 17.1192C19.9135 17.167 19.9515 17.2282 19.9765 17.303C20.0014 17.3777 20.0139 17.4683 20.0139 17.5745V18.7969H19.8095ZM19.2882 18.5905C19.3517 18.5905 19.4105 18.5802 19.4645 18.5596C19.5187 18.539 19.5655 18.5081 19.605 18.4669C19.6445 18.4247 19.6752 18.3721 19.6971 18.3093C19.72 18.2453 19.7314 18.1705 19.7314 18.0849V17.924L19.5082 17.9353C19.4146 17.9397 19.3361 17.9505 19.2726 17.9679C19.2091 17.9852 19.1582 18.0096 19.1197 18.041C19.0822 18.0714 19.0552 18.1087 19.0385 18.1532C19.0219 18.1966 19.0135 18.2459 19.0135 18.3012C19.0135 18.4008 19.0385 18.474 19.0884 18.5206C19.1394 18.5672 19.206 18.5905 19.2882 18.5905ZM22.7374 18.7969V17.6476C22.7374 17.5067 22.7115 17.4011 22.6595 17.3306C22.6074 17.2602 22.5268 17.2249 22.4176 17.2249C22.3416 17.2249 22.2771 17.2379 22.224 17.2639C22.171 17.2889 22.1272 17.3263 22.0929 17.3762C22.0596 17.4249 22.0352 17.4862 22.0196 17.5598C22.004 17.6324 21.9962 17.7164 21.9962 17.8118V18.7969H21.7106V17.6476C21.7106 17.5067 21.6846 17.4011 21.6326 17.3306C21.5815 17.2602 21.5014 17.2249 21.3922 17.2249C21.3121 17.2249 21.2449 17.239 21.1909 17.2672C21.1367 17.2954 21.0931 17.3371 21.0598 17.3924C21.0275 17.4477 21.0041 17.5154 20.9895 17.5956C20.976 17.6758 20.9693 17.7679 20.9693 17.8719V18.7969H20.6852V17.012H20.9162L20.9568 17.2525H20.9724C20.9974 17.2059 21.027 17.1658 21.0614 17.1323C21.0957 17.0976 21.1331 17.0689 21.1737 17.0461C21.2153 17.0234 21.259 17.0066 21.3048 16.9957C21.3516 16.9849 21.399 16.9795 21.4468 16.9795C21.5717 16.9795 21.6752 17.0033 21.7574 17.051C21.8406 17.0987 21.902 17.1735 21.9415 17.2753H21.954C21.9811 17.2244 22.0133 17.1805 22.0508 17.1437C22.0893 17.1068 22.1309 17.0764 22.1756 17.0526C22.2214 17.0277 22.2693 17.0093 22.3192 16.9974C22.3691 16.9854 22.4201 16.9795 22.4722 16.9795C22.6542 16.9795 22.791 17.0315 22.8826 17.1355C22.9752 17.2385 23.0215 17.4038 23.0215 17.6313V18.7969H22.7374ZM24.3717 18.8295C24.2572 18.8295 24.1527 18.8094 24.058 18.7693C23.9633 18.7292 23.8817 18.6707 23.813 18.5937C23.7454 18.5168 23.6928 18.4214 23.6553 18.3076C23.6179 18.1939 23.5992 18.0638 23.5992 17.9174C23.5992 17.7701 23.6163 17.6384 23.6507 17.5224C23.685 17.4065 23.7334 17.3084 23.7958 17.2282C23.8582 17.1469 23.9326 17.0851 24.019 17.0429C24.1064 17.0006 24.2026 16.9795 24.3077 16.9795C24.4107 16.9795 24.5033 16.999 24.5855 17.038C24.6677 17.076 24.7374 17.1301 24.7947 17.2005C24.8519 17.2699 24.8955 17.3539 24.9258 17.4525C24.9569 17.55 24.9726 17.6585 24.9726 17.7777V17.9614H23.8926C23.8978 18.1705 23.9399 18.3245 24.019 18.423C24.0991 18.5217 24.2177 18.571 24.3748 18.571C24.4279 18.571 24.4768 18.5683 24.5215 18.5629C24.5673 18.5574 24.611 18.5499 24.6526 18.5401C24.6953 18.5293 24.7364 18.5162 24.7759 18.5011C24.8154 18.4848 24.8555 18.4669 24.8961 18.4474V18.7108C24.8545 18.7314 24.8134 18.7492 24.7728 18.7644C24.7333 18.7796 24.6922 18.7921 24.6495 18.8018C24.6079 18.8116 24.5642 18.8186 24.5184 18.823C24.4736 18.8273 24.4248 18.8295 24.3717 18.8295ZM24.3015 17.2249C24.1829 17.2249 24.0887 17.2672 24.019 17.3517C23.9503 17.4363 23.9103 17.5593 23.8989 17.7207H24.6667C24.6667 17.6471 24.6594 17.5799 24.6448 17.5192C24.6313 17.4574 24.6095 17.4049 24.5792 17.3615C24.5501 17.3182 24.5127 17.2845 24.4669 17.2607C24.4211 17.2369 24.366 17.2249 24.3015 17.2249ZM26.8503 18.7969L26.5881 17.7955C26.5839 17.776 26.5787 17.7544 26.5725 17.7305C26.5662 17.7056 26.56 17.6796 26.5538 17.6525C26.5475 17.6254 26.5407 17.5978 26.5335 17.5696C26.5272 17.5414 26.5209 17.5138 26.5147 17.4866C26.5002 17.4238 26.485 17.3588 26.4695 17.2916H26.4601C26.4456 17.3598 26.4315 17.4255 26.418 17.4883C26.4065 17.5425 26.394 17.5983 26.3805 17.6557C26.3681 17.7132 26.3561 17.7619 26.3446 17.802L26.0762 18.7969H25.7469L25.3084 17.012H25.6064L25.8109 17.9614C25.8213 18.0101 25.8317 18.0632 25.8421 18.1207C25.8525 18.177 25.8624 18.2334 25.8717 18.2898C25.8811 18.345 25.8894 18.3976 25.8967 18.4474C25.904 18.4962 25.9097 18.5363 25.9139 18.5677H25.9232C25.9284 18.5395 25.9352 18.5022 25.9436 18.4556C25.9529 18.4079 25.9628 18.358 25.9732 18.306C25.9846 18.2529 25.9961 18.2009 26.0076 18.1499C26.0189 18.0979 26.0299 18.054 26.0403 18.0182L26.3196 17.012H26.6255L26.894 18.0182C26.9034 18.0551 26.9137 18.0985 26.9252 18.1483C26.9376 18.1982 26.9496 18.2491 26.9611 18.3012C26.9725 18.3521 26.9829 18.4014 26.9923 18.449C27.0016 18.4968 27.0084 18.5363 27.0126 18.5677H27.0219C27.0251 18.5395 27.0297 18.5022 27.036 18.4556C27.0433 18.4079 27.0516 18.3559 27.061 18.2995C27.0703 18.2432 27.0802 18.1857 27.0906 18.1272C27.102 18.0675 27.1135 18.0123 27.125 17.9614L27.3388 17.012H27.629L27.1858 18.7969H26.8503ZM29.474 17.9012C29.474 18.0497 29.4562 18.1819 29.4209 18.2979C29.3865 18.4128 29.3366 18.5097 29.2711 18.5889C29.2065 18.6669 29.128 18.7265 29.0354 18.7677C28.9428 18.8089 28.8388 18.8295 28.7233 18.8295C28.6161 18.8295 28.5173 18.8089 28.4267 18.7677C28.3362 18.7265 28.2577 18.6669 28.1911 18.5889C28.1256 18.5097 28.0741 18.4128 28.0366 18.2979C28.0002 18.1819 27.982 18.0497 27.982 17.9012C27.982 17.7538 27.9992 17.6232 28.0335 17.5095C28.0688 17.3945 28.1188 17.2981 28.1833 17.2201C28.2478 17.1409 28.3264 17.0814 28.4189 17.0413C28.5126 17.0001 28.6172 16.9795 28.7326 16.9795C28.8398 16.9795 28.9387 17.0001 29.0292 17.0413C29.1197 17.0814 29.1978 17.1409 29.2633 17.2201C29.3299 17.2981 29.3813 17.3945 29.4178 17.5095C29.4552 17.6232 29.474 17.7538 29.474 17.9012ZM28.2754 17.9012C28.2754 18.1278 28.3107 18.2984 28.3815 18.4133C28.4533 18.5271 28.5693 18.584 28.7295 18.584C28.8898 18.584 29.0047 18.5271 29.0744 18.4133C29.1452 18.2984 29.1806 18.1278 29.1806 17.9012C29.1806 17.6747 29.1447 17.5056 29.0729 17.394C29.0021 17.2813 28.8867 17.2249 28.7264 17.2249C28.5662 17.2249 28.4507 17.2813 28.3799 17.394C28.3102 17.5056 28.2754 17.6747 28.2754 17.9012ZM30.807 16.9795C30.8371 16.9795 30.871 16.9811 30.9085 16.9843C30.9459 16.9865 30.9782 16.9903 31.0052 16.9957L30.9677 17.2688C30.9386 17.2634 30.9085 17.2591 30.8772 17.2558C30.8471 17.2515 30.8184 17.2494 30.7914 17.2494C30.7259 17.2494 30.666 17.2634 30.6119 17.2916C30.5578 17.3187 30.511 17.3583 30.4714 17.4103C30.433 17.4612 30.4028 17.523 30.3809 17.5956C30.3601 17.6671 30.3497 17.7467 30.3497 17.8346V18.7969H30.0657V17.012H30.2966L30.331 17.3388H30.3435C30.3695 17.2922 30.3971 17.2471 30.4262 17.2038C30.4564 17.1604 30.4897 17.1225 30.5261 17.09C30.5635 17.0564 30.6051 17.0298 30.651 17.0103C30.6967 16.9897 30.7487 16.9795 30.807 16.9795ZM31.7483 17.8752L31.959 17.5989L32.4163 17.012H32.7455L32.1197 17.7841L32.7877 18.7969H32.4615L31.9372 17.9777L31.767 18.1109V18.7969H31.4861V16.2674H31.767V17.4282L31.7421 17.8752H31.7483Z" fill="white"/>
</svg>
