<svg width="67" height="20" viewBox="0 0 67 20" fill="none" xmlns="http://www.w3.org/2000/svg">
<path d="M67 0H0V20H67V0Z" fill="#464646"/>
<path d="M11.4307 2H14.0467V14.1107C12.7047 14.3653 11.7193 14.4673 10.6493 14.4673C7.45533 14.4673 5.79066 13.0233 5.79066 10.254C5.79066 7.586 7.55733 5.854 10.2927 5.854C10.7173 5.854 11.04 5.88733 11.4307 5.98933V2ZM11.4307 8.09533C11.1463 7.99927 10.8474 7.95326 10.5473 7.95933C9.222 7.95933 8.458 8.77467 8.458 10.2027C8.458 11.596 9.18866 12.36 10.5307 12.36C10.8193 12.36 11.0573 12.3433 11.4307 12.292V8.09533ZM18.2093 6.04V12.1053C18.2093 14.1947 18.0567 15.1973 17.598 16.0633C17.1733 16.896 16.6127 17.4227 15.4573 18L13.028 16.8447C14.1833 16.3013 14.744 15.8247 15.1007 15.0947C15.4747 14.3473 15.5933 13.4807 15.5933 11.2047V6.03933L18.2093 6.04ZM15.5933 2.014H18.2093V4.698H15.5933V2.014Z" fill="white"/>
<path fill-rule="evenodd" clip-rule="evenodd" d="M14.0467 2H11.4307V5.98933C11.04 5.88733 10.7173 5.854 10.2927 5.854C7.55733 5.854 5.79066 7.586 5.79066 10.254C5.79066 13.0233 7.45533 14.4673 10.6493 14.4673C11.7193 14.4673 12.7047 14.3653 14.0467 14.1107V2ZM18.2093 12.1053V6.04L15.5933 6.03933V11.2047C15.5933 13.4807 15.4747 14.3473 15.1007 15.0947C14.744 15.8247 14.1833 16.3013 13.028 16.8447L15.4573 18C16.6127 17.4227 17.1733 16.896 17.598 16.0633C18.0567 15.1973 18.2093 14.1947 18.2093 12.1053ZM18.2093 2.014H15.5933V4.698H18.2093V2.014ZM10.5473 7.95933C10.8474 7.95326 11.1463 7.99927 11.4307 8.09533V12.292C11.0573 12.3433 10.8193 12.36 10.5307 12.36C9.18866 12.36 8.458 11.596 8.458 10.2027C8.458 8.77467 9.222 7.95933 10.5473 7.95933Z" fill="white"/>
<path d="M26.5659 14H23.73V6H26.5894C27.394 6 28.0868 6.16016 28.6675 6.48047C29.2482 6.79818 29.6948 7.25521 30.0073 7.85156C30.3224 8.44792 30.48 9.16146 30.48 9.99219C30.48 10.8255 30.3224 11.5417 30.0073 12.1406C29.6948 12.7396 29.2456 13.1992 28.6597 13.5195C28.0763 13.8398 27.3784 14 26.5659 14ZM25.4214 12.5508H26.4956C26.9956 12.5508 27.4162 12.4622 27.7573 12.2852C28.1011 12.1055 28.3589 11.8281 28.5308 11.4531C28.7052 11.0755 28.7925 10.5885 28.7925 9.99219C28.7925 9.40104 28.7052 8.91797 28.5308 8.54297C28.3589 8.16797 28.1024 7.89193 27.7612 7.71484C27.4201 7.53776 26.9995 7.44922 26.4995 7.44922H25.4214V12.5508ZM31.7017 8H33.3657V14.2969C33.3657 14.7604 33.2746 15.1354 33.0923 15.4219C32.91 15.7083 32.6483 15.918 32.3071 16.0508C31.9686 16.1836 31.5636 16.25 31.0923 16.25C31.035 16.25 30.9803 16.2487 30.9282 16.2461C30.8735 16.2461 30.8162 16.2448 30.7563 16.2422V14.9414C30.8006 14.944 30.8397 14.9453 30.8735 14.9453C30.9048 14.9479 30.9386 14.9492 30.9751 14.9492C31.2433 14.9492 31.4308 14.8919 31.5376 14.7773C31.647 14.6654 31.7017 14.4961 31.7017 14.2695V8ZM32.5298 7.22656C32.285 7.22656 32.0741 7.14453 31.897 6.98047C31.7199 6.8138 31.6313 6.61458 31.6313 6.38281C31.6313 6.15365 31.7199 5.95703 31.897 5.79297C32.0741 5.6263 32.285 5.54297 32.5298 5.54297C32.7798 5.54297 32.992 5.6263 33.1665 5.79297C33.3436 5.95703 33.4321 6.15365 33.4321 6.38281C33.4321 6.61458 33.3436 6.8138 33.1665 6.98047C32.992 7.14453 32.7798 7.22656 32.5298 7.22656ZM36.4097 14.1133C36.0269 14.1133 35.6857 14.0469 35.3862 13.9141C35.0868 13.7786 34.8498 13.5794 34.6753 13.3164C34.5034 13.0508 34.4175 12.7201 34.4175 12.3242C34.4175 11.9909 34.4787 11.7109 34.6011 11.4844C34.7235 11.2578 34.8901 11.0755 35.1011 10.9375C35.312 10.7995 35.5516 10.6953 35.8198 10.625C36.0907 10.5547 36.3745 10.5052 36.6714 10.4766C37.0203 10.4401 37.3016 10.4062 37.5151 10.375C37.7287 10.3411 37.8836 10.2917 37.98 10.2266C38.0763 10.1615 38.1245 10.0651 38.1245 9.9375V9.91406C38.1245 9.66667 38.0464 9.47526 37.8901 9.33984C37.7365 9.20443 37.5177 9.13672 37.2339 9.13672C36.9344 9.13672 36.6961 9.20312 36.519 9.33594C36.342 9.46615 36.2248 9.63021 36.1675 9.82812L34.6284 9.70312C34.7065 9.33854 34.8602 9.02344 35.0894 8.75781C35.3185 8.48958 35.6141 8.28385 35.9761 8.14062C36.3407 7.99479 36.7625 7.92188 37.2417 7.92188C37.575 7.92188 37.894 7.96094 38.1987 8.03906C38.506 8.11719 38.7782 8.23828 39.0151 8.40234C39.2547 8.56641 39.4435 8.77734 39.5815 9.03516C39.7196 9.29036 39.7886 9.59635 39.7886 9.95312V14H38.2104V13.168H38.1636C38.0672 13.3555 37.9383 13.5208 37.7769 13.6641C37.6154 13.8047 37.4214 13.9154 37.1948 13.9961C36.9683 14.0742 36.7065 14.1133 36.4097 14.1133ZM36.8862 12.9648C37.131 12.9648 37.3472 12.9167 37.5347 12.8203C37.7222 12.7214 37.8693 12.5885 37.9761 12.4219C38.0828 12.2552 38.1362 12.0664 38.1362 11.8555V11.2188C38.0841 11.2526 38.0125 11.2839 37.9214 11.3125C37.8328 11.3385 37.7326 11.3633 37.6206 11.3867C37.5086 11.4076 37.3966 11.4271 37.2847 11.4453C37.1727 11.4609 37.0711 11.4753 36.98 11.4883C36.7847 11.5169 36.6141 11.5625 36.4683 11.625C36.3224 11.6875 36.2091 11.7721 36.1284 11.8789C36.0477 11.9831 36.0073 12.1133 36.0073 12.2695C36.0073 12.4961 36.0894 12.6693 36.2534 12.7891C36.4201 12.9062 36.631 12.9648 36.8862 12.9648ZM42.7437 10.5313V14H41.0796V8H42.6655V9.05859H42.7358C42.8687 8.70964 43.0913 8.43359 43.4038 8.23047C43.7163 8.02474 44.0952 7.92188 44.5405 7.92188C44.9572 7.92188 45.3205 8.01302 45.6304 8.19531C45.9403 8.3776 46.1812 8.63802 46.353 8.97656C46.5249 9.3125 46.6108 9.71354 46.6108 10.1797V14H44.9468V10.4766C44.9494 10.1094 44.8556 9.82292 44.6655 9.61719C44.4754 9.40885 44.2137 9.30469 43.8804 9.30469C43.6564 9.30469 43.4585 9.35286 43.2866 9.44922C43.1174 9.54557 42.9845 9.6862 42.8882 9.87109C42.7944 10.0534 42.7463 10.2734 42.7437 10.5313ZM50.6255 16.375C50.0864 16.375 49.6242 16.3008 49.2388 16.1523C48.856 16.0065 48.5513 15.8073 48.3247 15.5547C48.0981 15.3021 47.951 15.0182 47.8833 14.7031L49.4224 14.4961C49.4692 14.6159 49.5435 14.7279 49.645 14.832C49.7466 14.9362 49.8807 15.0195 50.0474 15.082C50.2166 15.1471 50.4224 15.1797 50.6646 15.1797C51.0265 15.1797 51.3247 15.0911 51.5591 14.9141C51.7961 14.7396 51.9146 14.4466 51.9146 14.0352V12.9375H51.8442C51.7713 13.1042 51.6619 13.2617 51.5161 13.4102C51.3703 13.5586 51.1828 13.6797 50.9536 13.7734C50.7244 13.8672 50.451 13.9141 50.1333 13.9141C49.6828 13.9141 49.2726 13.8099 48.9028 13.6016C48.5356 13.3906 48.2427 13.069 48.0239 12.6367C47.8078 12.2018 47.6997 11.6523 47.6997 10.9883C47.6997 10.3086 47.8104 9.74089 48.0317 9.28516C48.2531 8.82943 48.5474 8.48828 48.9146 8.26172C49.2843 8.03516 49.6893 7.92188 50.1294 7.92188C50.4653 7.92188 50.7466 7.97917 50.9731 8.09375C51.1997 8.20573 51.382 8.34635 51.52 8.51562C51.6606 8.68229 51.7687 8.84635 51.8442 9.00781H51.9067V8H53.5591V14.0586C53.5591 14.569 53.4341 14.9961 53.1841 15.3398C52.9341 15.6836 52.5877 15.9414 52.145 16.1133C51.7049 16.2878 51.1984 16.375 50.6255 16.375ZM50.6606 12.6641C50.9289 12.6641 51.1554 12.5977 51.3403 12.4648C51.5278 12.3294 51.6711 12.1367 51.77 11.8867C51.8716 11.6341 51.9224 11.332 51.9224 10.9805C51.9224 10.6289 51.8729 10.3242 51.7739 10.0664C51.675 9.80599 51.5317 9.60417 51.3442 9.46094C51.1567 9.31771 50.9289 9.24609 50.6606 9.24609C50.3872 9.24609 50.1567 9.32031 49.9692 9.46875C49.7817 9.61458 49.6398 9.81771 49.5435 10.0781C49.4471 10.3385 49.3989 10.6393 49.3989 10.9805C49.3989 11.3268 49.4471 11.6263 49.5435 11.8789C49.6424 12.1289 49.7843 12.3229 49.9692 12.4609C50.1567 12.5964 50.3872 12.6641 50.6606 12.6641ZM57.5942 14.1172C56.9875 14.1172 56.4627 13.9883 56.02 13.7305C55.5799 13.4701 55.2401 13.1081 55.0005 12.6445C54.7609 12.1784 54.6411 11.638 54.6411 11.0234C54.6411 10.4036 54.7609 9.86198 55.0005 9.39844C55.2401 8.93229 55.5799 8.57031 56.02 8.3125C56.4627 8.05208 56.9875 7.92188 57.5942 7.92188C58.201 7.92188 58.7244 8.05208 59.1646 8.3125C59.6073 8.57031 59.9484 8.93229 60.188 9.39844C60.4276 9.86198 60.5474 10.4036 60.5474 11.0234C60.5474 11.638 60.4276 12.1784 60.188 12.6445C59.9484 13.1081 59.6073 13.4701 59.1646 13.7305C58.7244 13.9883 58.201 14.1172 57.5942 14.1172ZM57.6021 12.8281C57.8781 12.8281 58.1086 12.75 58.2935 12.5938C58.4784 12.4349 58.6177 12.2187 58.7114 11.9453C58.8078 11.6719 58.856 11.3607 58.856 11.0117C58.856 10.6628 58.8078 10.3516 58.7114 10.0781C58.6177 9.80469 58.4784 9.58854 58.2935 9.42969C58.1086 9.27083 57.8781 9.19141 57.6021 9.19141C57.3234 9.19141 57.089 9.27083 56.8989 9.42969C56.7114 9.58854 56.5695 9.80469 56.4731 10.0781C56.3794 10.3516 56.3325 10.6628 56.3325 11.0117C56.3325 11.3607 56.3794 11.6719 56.4731 11.9453C56.5695 12.2187 56.7114 12.4349 56.8989 12.5938C57.089 12.75 57.3234 12.8281 57.6021 12.8281Z" fill="white"/>
</svg>
