<svg width="67" height="20" viewBox="0 0 67 20" fill="none" xmlns="http://www.w3.org/2000/svg">
<g clip-path="url(#clip0_2_133)">
<path d="M67 0H0V20H67V0Z" fill="#464646"/>
<path d="M14.4873 8.76675H16.0765C16.1134 8.76675 16.1488 8.75216 16.1749 8.72616C16.201 8.70016 16.2158 8.66487 16.216 8.628V7.21275C16.216 7.17575 16.2013 7.14027 16.1752 7.11411C16.149 7.08795 16.1135 7.07325 16.0765 7.07325H14.4873C14.4505 7.07325 14.4152 7.08787 14.3892 7.11389C14.3631 7.13991 14.3485 7.1752 14.3485 7.212V8.628C14.3485 8.7045 14.4108 8.76675 14.4873 8.76675ZM12.2718 4.69425H13.8603C13.8973 4.69425 13.9327 4.67955 13.9589 4.65339C13.9851 4.62723 13.9998 4.59175 13.9998 4.55475V3.13875C13.9996 3.10188 13.9848 3.06659 13.9586 3.04059C13.9325 3.01459 13.8971 3 13.8603 3H12.2718C12.235 3 12.1997 3.01462 12.1737 3.04064C12.1476 3.06666 12.133 3.10195 12.133 3.13875V4.55475C12.133 4.63125 12.1945 4.69425 12.2718 4.69425ZM12.2718 6.7305H13.8603C13.8972 6.7303 13.9326 6.71554 13.9587 6.68942C13.9848 6.6633 13.9996 6.62794 13.9998 6.591V5.17575C13.9996 5.13888 13.9848 5.10359 13.9586 5.07759C13.9325 5.05159 13.8971 5.037 13.8603 5.037H12.2718C12.235 5.037 12.1997 5.05162 12.1737 5.07764C12.1476 5.10366 12.133 5.13895 12.133 5.17575V6.591C12.133 6.6675 12.1945 6.72975 12.2718 6.7305ZM10.0743 6.7305H11.6643C11.701 6.7301 11.7361 6.71523 11.7619 6.68911C11.7878 6.663 11.8023 6.62774 11.8023 6.591V5.17575C11.8023 5.13895 11.7876 5.10366 11.7616 5.07764C11.7356 5.05162 11.7003 5.037 11.6635 5.037H10.075C10.0382 5.037 10.0029 5.05162 9.9769 5.07764C9.95088 5.10366 9.93626 5.13895 9.93626 5.17575V6.591C9.93626 6.6675 9.99851 6.72975 10.075 6.7305M7.85201 6.7305H9.44126C9.47813 6.7303 9.51342 6.71552 9.53942 6.68938C9.56542 6.66324 9.58001 6.62787 9.58001 6.591V5.17575C9.58001 5.13895 9.56539 5.10366 9.53937 5.07764C9.51335 5.05162 9.47806 5.037 9.44126 5.037H7.85201C7.81514 5.037 7.77978 5.05159 7.75364 5.07759C7.7275 5.10359 7.71271 5.13888 7.71251 5.17575V6.591C7.71251 6.6675 7.77551 6.72975 7.85201 6.7305ZM12.2718 8.76675H13.8603C13.8971 8.76675 13.9325 8.75216 13.9586 8.72616C13.9848 8.70016 13.9996 8.66487 13.9998 8.628V7.21275C13.9998 7.17575 13.9851 7.14027 13.9589 7.11411C13.9327 7.08795 13.8973 7.07325 13.8603 7.07325H12.2718C12.235 7.07325 12.1997 7.08787 12.1737 7.11389C12.1476 7.13991 12.133 7.1752 12.133 7.212V8.628C12.133 8.7045 12.1945 8.76675 12.2718 8.76675ZM10.0743 8.76675H11.6643C11.7009 8.76655 11.736 8.75185 11.7619 8.72585C11.7877 8.69985 11.8023 8.66467 11.8023 8.628V7.21275C11.8024 7.19453 11.7989 7.17647 11.792 7.1596C11.7851 7.14272 11.775 7.12737 11.7622 7.11442C11.7493 7.10146 11.7341 7.09116 11.7173 7.0841C11.7005 7.07703 11.6825 7.07335 11.6643 7.07325H10.0743C10.0376 7.07345 10.0025 7.08815 9.97664 7.11415C9.95078 7.14015 9.93626 7.17533 9.93626 7.212V8.628C9.93626 8.7045 9.99851 8.76675 10.075 8.76675M7.85201 8.76675H9.44126C9.47806 8.76675 9.51335 8.75213 9.53937 8.72611C9.56539 8.70009 9.58001 8.6648 9.58001 8.628V7.21275C9.58011 7.19453 9.57662 7.17647 9.56974 7.1596C9.56286 7.14272 9.55272 7.12737 9.53991 7.11442C9.52709 7.10146 9.51185 7.09116 9.49505 7.0841C9.47826 7.07703 9.46023 7.07335 9.44201 7.07325H7.85201C7.81502 7.07325 7.77953 7.08795 7.75337 7.11411C7.72721 7.14027 7.71251 7.17575 7.71251 7.21275V8.628C7.71251 8.7045 7.77551 8.76675 7.85201 8.76675ZM5.66201 8.76675H7.25201C7.28868 8.76655 7.32378 8.75185 7.34964 8.72585C7.3755 8.69985 7.39001 8.66467 7.39001 8.628V7.21275C7.39011 7.19453 7.38662 7.17647 7.37974 7.1596C7.37286 7.14272 7.36272 7.12737 7.34991 7.11442C7.33709 7.10146 7.32185 7.09116 7.30505 7.0841C7.28826 7.07703 7.27023 7.07335 7.25201 7.07325H5.66201C5.62534 7.07345 5.59024 7.08815 5.56439 7.11415C5.53853 7.14015 5.52401 7.17533 5.52401 7.212V8.628C5.52401 8.7045 5.58476 8.76675 5.66201 8.76675ZM21.8223 7.87575C21.7735 7.8375 21.3183 7.49325 20.3568 7.49325C20.1033 7.494 19.8498 7.51575 19.5993 7.5585C19.4133 6.2835 18.3595 5.661 18.3123 5.634L18.0543 5.48475L17.8848 5.73C17.6718 6.0585 17.5173 6.4215 17.4258 6.8025C17.2533 7.53 17.3583 8.214 17.728 8.79825C17.2818 9.04725 16.5655 9.108 16.42 9.11325H4.56326C4.4144 9.11345 4.27167 9.17257 4.16626 9.27769C4.06086 9.38281 4.00136 9.52539 4.00076 9.67425C3.98687 10.7129 4.16276 11.7453 4.51976 12.7208C4.92851 13.7917 5.53601 14.5808 6.32726 15.0638C7.21226 15.606 8.65226 15.9165 10.2835 15.9165C11.0208 15.9187 11.7558 15.852 12.481 15.717C13.4881 15.532 14.4573 15.1799 15.3483 14.6752C16.0833 14.25 16.7433 13.7092 17.3058 13.0732C18.2448 12.0097 18.8043 10.8255 19.2205 9.77325H19.3863C20.4153 9.77325 21.0475 9.3615 21.3963 9.0165C21.628 8.79675 21.8088 8.529 21.9265 8.232L22 8.016L21.8223 7.87575Z" fill="white"/>
<path d="M27.8635 14H25.0276V6H27.8869C28.6916 6 29.3843 6.16016 29.9651 6.48047C30.5458 6.79818 30.9924 7.25521 31.3049 7.85156C31.62 8.44792 31.7776 9.16146 31.7776 9.99219C31.7776 10.8255 31.62 11.5417 31.3049 12.1406C30.9924 12.7396 30.5432 13.1992 29.9572 13.5195C29.3739 13.8398 28.676 14 27.8635 14ZM26.719 12.5508H27.7932C28.2932 12.5508 28.7138 12.4622 29.0549 12.2852C29.3987 12.1055 29.6565 11.8281 29.8283 11.4531C30.0028 11.0755 30.0901 10.5885 30.0901 9.99219C30.0901 9.40104 30.0028 8.91797 29.8283 8.54297C29.6565 8.16797 29.4 7.89193 29.0588 7.71484C28.7177 7.53776 28.2971 7.44922 27.7971 7.44922H26.719V12.5508ZM35.7102 14.1172C35.1034 14.1172 34.5787 13.9883 34.136 13.7305C33.6959 13.4701 33.356 13.1081 33.1164 12.6445C32.8768 12.1784 32.757 11.638 32.757 11.0234C32.757 10.4036 32.8768 9.86198 33.1164 9.39844C33.356 8.93229 33.6959 8.57031 34.136 8.3125C34.5787 8.05208 35.1034 7.92188 35.7102 7.92188C36.3169 7.92188 36.8404 8.05208 37.2805 8.3125C37.7232 8.57031 38.0643 8.93229 38.3039 9.39844C38.5435 9.86198 38.6633 10.4036 38.6633 11.0234C38.6633 11.638 38.5435 12.1784 38.3039 12.6445C38.0643 13.1081 37.7232 13.4701 37.2805 13.7305C36.8404 13.9883 36.3169 14.1172 35.7102 14.1172ZM35.718 12.8281C35.994 12.8281 36.2245 12.75 36.4094 12.5938C36.5943 12.4349 36.7336 12.2187 36.8274 11.9453C36.9237 11.6719 36.9719 11.3607 36.9719 11.0117C36.9719 10.6628 36.9237 10.3516 36.8274 10.0781C36.7336 9.80469 36.5943 9.58854 36.4094 9.42969C36.2245 9.27083 35.994 9.19141 35.718 9.19141C35.4393 9.19141 35.205 9.27083 35.0149 9.42969C34.8274 9.58854 34.6854 9.80469 34.5891 10.0781C34.4953 10.3516 34.4485 10.6628 34.4485 11.0117C34.4485 11.3607 34.4953 11.6719 34.5891 11.9453C34.6854 12.2187 34.8274 12.4349 35.0149 12.5938C35.205 12.75 35.4393 12.8281 35.718 12.8281ZM42.4563 14.1172C41.8417 14.1172 41.313 13.987 40.8703 13.7266C40.4302 13.4635 40.0917 13.099 39.8547 12.6328C39.6203 12.1667 39.5031 11.6302 39.5031 11.0234C39.5031 10.4089 39.6216 9.86979 39.8586 9.40625C40.0982 8.9401 40.438 8.57682 40.8781 8.31641C41.3182 8.05339 41.8417 7.92188 42.4485 7.92188C42.9719 7.92188 43.4302 8.01693 43.8235 8.20703C44.2167 8.39714 44.5279 8.66406 44.757 9.00781C44.9862 9.35156 45.1125 9.75521 45.136 10.2188H43.5656C43.5214 9.91927 43.4042 9.67839 43.2141 9.49609C43.0266 9.3112 42.7805 9.21875 42.4758 9.21875C42.218 9.21875 41.9927 9.28906 41.8 9.42969C41.6099 9.56771 41.4615 9.76953 41.3547 10.0352C41.2479 10.3008 41.1945 10.6224 41.1945 11C41.1945 11.3828 41.2466 11.7083 41.3508 11.9766C41.4576 12.2448 41.6073 12.4492 41.8 12.5898C41.9927 12.7305 42.218 12.8008 42.4758 12.8008C42.6659 12.8008 42.8365 12.7617 42.9875 12.6836C43.1412 12.6055 43.2675 12.4922 43.3664 12.3437C43.468 12.1927 43.5344 12.0117 43.5656 11.8008H45.136C45.1099 12.2591 44.9849 12.6628 44.761 13.0117C44.5396 13.3581 44.2336 13.6289 43.843 13.8242C43.4524 14.0195 42.9901 14.1172 42.4563 14.1172ZM47.7092 12.2734L47.7131 10.2773H47.9553L49.8772 8H51.7873L49.2053 11.0156H48.8108L47.7092 12.2734ZM46.2014 14V6H47.8654V14H46.2014ZM49.9514 14L48.1858 11.3867L49.2951 10.2109L51.9006 14H49.9514ZM55.091 14.1172C54.4738 14.1172 53.9426 13.9922 53.4973 13.7422C53.0546 13.4896 52.7134 13.1328 52.4738 12.6719C52.2343 12.2083 52.1145 11.6602 52.1145 11.0273C52.1145 10.4102 52.2343 9.86849 52.4738 9.40234C52.7134 8.9362 53.0507 8.57292 53.4856 8.3125C53.9231 8.05208 54.4361 7.92188 55.0246 7.92188C55.4205 7.92188 55.789 7.98568 56.1301 8.11328C56.4738 8.23828 56.7733 8.42708 57.0285 8.67969C57.2863 8.93229 57.4869 9.25 57.6301 9.63281C57.7733 10.013 57.8449 10.4583 57.8449 10.9687V11.4258H52.7785V10.3945H56.2785C56.2785 10.1549 56.2265 9.94271 56.1223 9.75781C56.0181 9.57292 55.8736 9.42839 55.6887 9.32422C55.5064 9.21745 55.2942 9.16406 55.052 9.16406C54.7994 9.16406 54.5754 9.22266 54.3801 9.33984C54.1874 9.45443 54.0363 9.60937 53.927 9.80469C53.8176 9.9974 53.7616 10.2122 53.759 10.4492V11.4297C53.759 11.7266 53.8137 11.9831 53.9231 12.1992C54.035 12.4154 54.1926 12.582 54.3957 12.6992C54.5988 12.8164 54.8397 12.875 55.1184 12.875C55.3033 12.875 55.4725 12.849 55.6262 12.7969C55.7798 12.7448 55.9113 12.6667 56.0207 12.5625C56.1301 12.4583 56.2134 12.3307 56.2707 12.1797L57.8098 12.2812C57.7317 12.651 57.5715 12.974 57.3293 13.25C57.0897 13.5234 56.7798 13.737 56.3996 13.8906C56.022 14.0417 55.5858 14.1172 55.091 14.1172ZM58.9309 14V8H60.5442V9.04687H60.6067C60.716 8.67448 60.8996 8.39323 61.1574 8.20313C61.4153 8.01042 61.7121 7.91406 62.0481 7.91406C62.1314 7.91406 62.2212 7.91927 62.3176 7.92969C62.414 7.9401 62.4986 7.95443 62.5715 7.97266V9.44922C62.4934 9.42578 62.3853 9.40495 62.2473 9.38672C62.1093 9.36849 61.983 9.35938 61.8684 9.35938C61.6236 9.35938 61.4048 9.41276 61.2121 9.51953C61.022 9.6237 60.871 9.76953 60.759 9.95703C60.6496 10.1445 60.5949 10.3607 60.5949 10.6055V14H58.9309Z" fill="white"/>
</g>
<defs>
<clipPath id="clip0_2_133">
<rect width="67" height="20" fill="white"/>
</clipPath>
</defs>
</svg>
