<svg width="40" height="20" viewBox="0 0 40 20" fill="none" xmlns="http://www.w3.org/2000/svg">
<rect width="40" height="20" fill="#464646"/>
<mask id="mask0_12_43" style="mask-type:luminance" maskUnits="userSpaceOnUse" x="3" y="2" width="17" height="16">
<path d="M3 2H19.0307V17.893H3V2Z" fill="white"/>
</mask>
<g mask="url(#mask0_12_43)">
<path d="M18.5815 9.24556L11.6477 2.31248C11.5527 2.21749 11.44 2.14215 11.3159 2.09074C11.1918 2.03934 11.0589 2.01288 10.9246 2.01288C10.7902 2.01288 10.6573 2.03934 10.5332 2.09074C10.4091 2.14215 10.2964 2.21749 10.2014 2.31248L8.76163 3.7521L10.5877 5.5789C10.8024 5.50571 11.0333 5.49415 11.2542 5.54552C11.4751 5.59689 11.6772 5.70914 11.8376 5.86954C11.9987 6.03096 12.1112 6.23443 12.1623 6.45673C12.2133 6.67903 12.2008 6.9112 12.1262 7.12673L13.8864 8.88749C14.1019 8.81257 14.3341 8.79992 14.5564 8.85099C14.7788 8.90206 14.9822 9.01478 15.1434 9.17621C15.2565 9.28912 15.3463 9.42322 15.4075 9.57085C15.4687 9.71848 15.5002 9.87673 15.5002 10.0366C15.5002 10.1964 15.4687 10.3546 15.4075 10.5023C15.3463 10.6499 15.2565 10.784 15.1434 10.8969C15.0304 11.01 14.8963 11.0998 14.7486 11.161C14.6009 11.2223 14.4426 11.2538 14.2827 11.2538C14.1228 11.2538 13.9645 11.2223 13.8168 11.161C13.6691 11.0998 13.535 11.01 13.422 10.8969C13.2523 10.727 13.1367 10.5108 13.0896 10.2753C13.0425 10.0399 13.0661 9.79575 13.1573 9.57367L11.5156 7.93192V12.252C11.6348 12.3106 11.7435 12.3883 11.8376 12.482C12.0658 12.7103 12.194 13.02 12.194 13.3428C12.194 13.6656 12.0658 13.9752 11.8376 14.2036C11.3619 14.6786 10.5912 14.6786 10.1169 14.2036C10.0038 14.0906 9.91397 13.9564 9.85271 13.8087C9.79146 13.661 9.75992 13.5027 9.75992 13.3428C9.75992 13.1829 9.79146 13.0246 9.85271 12.8769C9.91397 12.7292 10.0038 12.595 10.1169 12.482C10.2305 12.3677 10.3659 12.2775 10.5151 12.2166V7.8563C10.3659 7.79544 10.2305 7.70519 10.1169 7.59092C9.94608 7.42018 9.82987 7.2025 9.78308 6.96554C9.73629 6.72858 9.76103 6.48306 9.85416 6.2602L8.05384 4.45919L3.29953 9.2135C3.20452 9.30846 3.12916 9.4212 3.07774 9.54529C3.02631 9.66938 2.99985 9.80239 2.99985 9.93671C2.99985 10.071 3.02631 10.204 3.07774 10.3281C3.12916 10.4522 3.20452 10.565 3.29953 10.6599L10.2333 17.5937C10.3283 17.6887 10.441 17.764 10.5651 17.8154C10.6891 17.8668 10.8221 17.8933 10.9564 17.8933C11.0907 17.8933 11.2237 17.8668 11.3478 17.8154C11.4719 17.764 11.5846 17.6887 11.6796 17.5937L18.5815 10.6927C18.7733 10.5008 18.8811 10.2405 18.8811 9.96912C18.8811 9.69774 18.7733 9.43747 18.5815 9.24556Z" fill="white"/>
</g>
<path d="M25.6339 16.268C25.0948 16.268 24.6326 16.1938 24.2472 16.0453C23.8644 15.8995 23.5597 15.7003 23.3331 15.4477C23.1066 15.1951 22.9594 14.9112 22.8917 14.5961L24.4308 14.3891C24.4777 14.5089 24.5519 14.6209 24.6534 14.725C24.755 14.8292 24.8891 14.9125 25.0558 14.975C25.2251 15.0401 25.4308 15.0727 25.673 15.0727C26.035 15.0727 26.3331 14.9842 26.5675 14.8071C26.8045 14.6326 26.923 14.3396 26.923 13.9282V12.8305H26.8527C26.7797 12.9972 26.6704 13.1547 26.5245 13.3032C26.3787 13.4516 26.1912 13.5727 25.962 13.6664C25.7329 13.7602 25.4594 13.8071 25.1417 13.8071C24.6912 13.8071 24.281 13.7029 23.9113 13.4946C23.5441 13.2836 23.2511 12.962 23.0323 12.5297C22.8162 12.0948 22.7081 11.5453 22.7081 10.8813C22.7081 10.2016 22.8188 9.63389 23.0402 9.17816C23.2615 8.72243 23.5558 8.38129 23.923 8.15472C24.2928 7.92816 24.6977 7.81488 25.1378 7.81488C25.4738 7.81488 25.755 7.87217 25.9816 7.98676C26.2081 8.09873 26.3904 8.23936 26.5284 8.40863C26.6691 8.5753 26.7771 8.73936 26.8527 8.90082H26.9152V7.89301H28.5675V13.9516C28.5675 14.462 28.4425 14.8891 28.1925 15.2328C27.9425 15.5766 27.5962 15.8344 27.1534 16.0063C26.7133 16.1808 26.2068 16.268 25.6339 16.268ZM25.6691 12.5571C25.9373 12.5571 26.1639 12.4907 26.3488 12.3578C26.5363 12.2224 26.6795 12.0297 26.7784 11.7797C26.88 11.5271 26.9308 11.225 26.9308 10.8735C26.9308 10.5219 26.8813 10.2172 26.7823 9.95941C26.6834 9.69899 26.5402 9.49717 26.3527 9.35394C26.1652 9.21071 25.9373 9.1391 25.6691 9.1391C25.3956 9.1391 25.1652 9.21332 24.9777 9.36176C24.7902 9.50759 24.6482 9.71071 24.5519 9.97113C24.4555 10.2315 24.4073 10.5323 24.4073 10.8735C24.4073 11.2198 24.4555 11.5193 24.5519 11.7719C24.6508 12.0219 24.7928 12.2159 24.9777 12.3539C25.1652 12.4894 25.3956 12.5571 25.6691 12.5571ZM29.8917 13.893V7.89301H31.5558V13.893H29.8917ZM30.7277 7.11957C30.4803 7.11957 30.268 7.03754 30.0909 6.87347C29.9165 6.70681 29.8292 6.50759 29.8292 6.27582C29.8292 6.04665 29.9165 5.85004 30.0909 5.68597C30.268 5.51931 30.4803 5.43597 30.7277 5.43597C30.9751 5.43597 31.186 5.51931 31.3605 5.68597C31.5376 5.85004 31.6261 6.04665 31.6261 6.27582C31.6261 6.50759 31.5376 6.70681 31.3605 6.87347C31.186 7.03754 30.9751 7.11957 30.7277 7.11957ZM36.0802 7.89301V9.14301H32.4669V7.89301H36.0802ZM33.2872 6.45551H34.9513V12.0493C34.9513 12.2029 34.9747 12.3227 35.0216 12.4086C35.0685 12.492 35.1336 12.5506 35.2169 12.5844C35.3029 12.6183 35.4018 12.6352 35.5138 12.6352C35.5919 12.6352 35.67 12.6287 35.7482 12.6157C35.8263 12.6 35.8862 12.5883 35.9279 12.5805L36.1896 13.8188C36.1062 13.8448 35.9891 13.8748 35.838 13.9086C35.687 13.9451 35.5034 13.9672 35.2872 13.975C34.8862 13.9907 34.5346 13.9373 34.2325 13.8149C33.9331 13.6925 33.7 13.5024 33.5333 13.2446C33.3667 12.9868 33.2846 12.6612 33.2872 12.268V6.45551Z" fill="white"/>
</svg>
