<svg width="61" height="20" viewBox="0 0 61 20" fill="none" xmlns="http://www.w3.org/2000/svg">
<path d="M61 0H0V20H61V0Z" fill="#464646"/>
<path d="M12 1C7.0275 1 3 5.02975 3 10C3 13.9772 5.5785 17.35 9.15375 18.5387C9.60375 18.6235 9.76875 18.3452 9.76875 18.106C9.76875 17.8922 9.76125 17.326 9.7575 16.576C7.254 17.119 6.726 15.3685 6.726 15.3685C6.3165 14.3297 5.72475 14.0522 5.72475 14.0522C4.9095 13.4942 5.78775 13.5055 5.78775 13.5055C6.6915 13.5685 7.16625 14.4325 7.16625 14.4325C7.96875 15.8087 9.273 15.4112 9.7875 15.181C9.8685 14.599 10.1003 14.2022 10.3575 13.9772C8.35875 13.7522 6.258 12.9783 6.258 9.52975C6.258 8.54725 6.60675 7.74475 7.18425 7.11475C7.083 6.8875 6.77925 5.9725 7.263 4.73275C7.263 4.73275 8.01675 4.49125 9.738 5.65525C10.458 5.455 11.223 5.356 11.988 5.3515C12.753 5.356 13.518 5.455 14.238 5.65525C15.948 4.49125 16.7017 4.73275 16.7017 4.73275C17.1855 5.9725 16.8817 6.8875 16.7917 7.11475C17.3655 7.74475 17.7142 8.54725 17.7142 9.52975C17.7142 12.9873 15.6105 13.7485 13.608 13.9697C13.923 14.2397 14.2155 14.7917 14.2155 15.6347C14.2155 16.8392 14.2043 17.8067 14.2043 18.0992C14.2043 18.3355 14.3617 18.6167 14.823 18.5267C18.4238 17.3462 21 13.9713 21 10C21 5.02975 16.9702 1 12 1Z" fill="white"/>
<path d="M26.7359 16.1523C26.1969 16.1523 25.7346 16.078 25.3492 15.9296C24.9664 15.7838 24.6617 15.5845 24.4352 15.3319C24.2086 15.0793 24.0615 14.7955 23.9937 14.4804L25.5328 14.2733C25.5797 14.3931 25.6539 14.5051 25.7555 14.6093C25.857 14.7135 25.9911 14.7968 26.1578 14.8593C26.3271 14.9244 26.5328 14.9569 26.775 14.9569C27.137 14.9569 27.4352 14.8684 27.6695 14.6913C27.9065 14.5168 28.025 14.2239 28.025 13.8124V12.7148H27.9547C27.8818 12.8814 27.7724 13.039 27.6266 13.1874C27.4807 13.3358 27.2932 13.4569 27.0641 13.5507C26.8349 13.6444 26.5615 13.6913 26.2437 13.6913C25.7932 13.6913 25.3831 13.5871 25.0133 13.3788C24.6461 13.1679 24.3531 12.8463 24.1344 12.414C23.9182 11.9791 23.8102 11.4296 23.8102 10.7655C23.8102 10.0858 23.9208 9.51814 24.1422 9.06241C24.3635 8.60668 24.6578 8.26553 25.025 8.03897C25.3948 7.81241 25.7997 7.69913 26.2398 7.69913C26.5758 7.69913 26.857 7.75642 27.0836 7.871C27.3102 7.98298 27.4924 8.12361 27.6305 8.29288C27.7711 8.45954 27.8792 8.62361 27.9547 8.78506H28.0172V7.77725H29.6695V13.8358C29.6695 14.3463 29.5445 14.7733 29.2945 15.1171C29.0445 15.4608 28.6982 15.7187 28.2555 15.8905C27.8154 16.065 27.3088 16.1523 26.7359 16.1523ZM26.7711 12.4413C27.0393 12.4413 27.2659 12.3749 27.4508 12.2421C27.6383 12.1067 27.7815 11.914 27.8805 11.664C27.982 11.4114 28.0328 11.1093 28.0328 10.7577C28.0328 10.4062 27.9833 10.1015 27.8844 9.84366C27.7854 9.58324 27.6422 9.38142 27.4547 9.23819C27.2672 9.09496 27.0393 9.02335 26.7711 9.02335C26.4977 9.02335 26.2672 9.09756 26.0797 9.246C25.8922 9.39184 25.7503 9.59496 25.6539 9.85538C25.5575 10.1158 25.5094 10.4166 25.5094 10.7577C25.5094 11.1041 25.5575 11.4036 25.6539 11.6562C25.7529 11.9062 25.8948 12.1002 26.0797 12.2382C26.2672 12.3736 26.4977 12.4413 26.7711 12.4413ZM30.9937 13.7773V7.77725H32.6578V13.7773H30.9937ZM31.8297 7.00381C31.5823 7.00381 31.37 6.92178 31.193 6.75772C31.0185 6.59105 30.9312 6.39184 30.9312 6.16006C30.9312 5.9309 31.0185 5.73428 31.193 5.57022C31.37 5.40355 31.5823 5.32022 31.8297 5.32022C32.0771 5.32022 32.288 5.40355 32.4625 5.57022C32.6396 5.73428 32.7281 5.9309 32.7281 6.16006C32.7281 6.39184 32.6396 6.59105 32.4625 6.75772C32.288 6.92178 32.0771 7.00381 31.8297 7.00381ZM37.1822 7.77725V9.02725H33.5689V7.77725H37.1822ZM34.3893 6.33975H36.0533V11.9335C36.0533 12.0871 36.0768 12.2069 36.1236 12.2929C36.1705 12.3762 36.2356 12.4348 36.3189 12.4687C36.4049 12.5025 36.5038 12.5194 36.6158 12.5194C36.6939 12.5194 36.7721 12.5129 36.8502 12.4999C36.9283 12.4843 36.9882 12.4726 37.0299 12.4648L37.2916 13.703C37.2083 13.7291 37.0911 13.759 36.94 13.7929C36.789 13.8293 36.6054 13.8515 36.3893 13.8593C35.9882 13.8749 35.6366 13.8215 35.3346 13.6991C35.0351 13.5767 34.802 13.3866 34.6353 13.1288C34.4687 12.871 34.3866 12.5455 34.3893 12.1523V6.33975ZM40.0592 10.3085V13.7773H38.3951V5.77725H40.0123V8.83585H40.0826C40.218 8.48168 40.4368 8.20434 40.7389 8.00381C41.0409 7.80069 41.4199 7.69913 41.8756 7.69913C42.2922 7.69913 42.6555 7.79027 42.9654 7.97256C43.2779 8.15225 43.5201 8.41137 43.692 8.74991C43.8665 9.08585 43.9524 9.48819 43.9498 9.95694V13.7773H42.2857V10.2538C42.2883 9.88402 42.1946 9.59626 42.0045 9.39053C41.817 9.1848 41.554 9.08194 41.2154 9.08194C40.9889 9.08194 40.7883 9.13012 40.6139 9.22647C40.442 9.32283 40.3066 9.46345 40.2076 9.64835C40.1113 9.83064 40.0618 10.0507 40.0592 10.3085ZM49.107 11.2226V7.77725H50.7711V13.7773H49.1734V12.6874H49.1109C48.9755 13.039 48.7503 13.3215 48.4352 13.5351C48.1227 13.7486 47.7411 13.8554 47.2906 13.8554C46.8896 13.8554 46.5367 13.7642 46.232 13.5819C45.9273 13.3996 45.6891 13.1405 45.5172 12.8046C45.3479 12.4687 45.262 12.0663 45.2594 11.5976V7.77725H46.9234V11.3007C46.926 11.6549 47.0211 11.9348 47.2086 12.1405C47.3961 12.3463 47.6474 12.4491 47.9625 12.4491C48.163 12.4491 48.3505 12.4036 48.525 12.3124C48.6995 12.2187 48.8401 12.0806 48.9469 11.8983C49.0562 11.7161 49.1096 11.4908 49.107 11.2226ZM52.1334 13.7773V5.77725H53.7975V8.78506H53.8482C53.9212 8.62361 54.0266 8.45954 54.1646 8.29288C54.3053 8.12361 54.4876 7.98298 54.7115 7.871C54.9381 7.75642 55.2193 7.69913 55.5553 7.69913C55.9928 7.69913 56.3964 7.81371 56.7662 8.04288C57.136 8.26944 57.4316 8.61189 57.6529 9.07022C57.8743 9.52595 57.985 10.0976 57.985 10.7851C57.985 11.4543 57.8769 12.0194 57.6607 12.4804C57.4472 12.9387 57.1555 13.2864 56.7857 13.5233C56.4185 13.7577 56.0071 13.8749 55.5514 13.8749C55.2284 13.8749 54.9537 13.8215 54.7271 13.7148C54.5032 13.608 54.3196 13.4739 54.1764 13.3124C54.0331 13.1483 53.9238 12.983 53.8482 12.8163H53.774V13.7773H52.1334ZM53.7623 10.7773C53.7623 11.134 53.8118 11.4452 53.9107 11.7108C54.0097 11.9765 54.1529 12.1835 54.3404 12.3319C54.5279 12.4778 54.7558 12.5507 55.024 12.5507C55.2949 12.5507 55.524 12.4765 55.7115 12.328C55.899 12.177 56.0409 11.9687 56.1373 11.703C56.2363 11.4348 56.2857 11.1262 56.2857 10.7773C56.2857 10.4309 56.2376 10.1262 56.1412 9.86319C56.0449 9.60017 55.9029 9.39444 55.7154 9.246C55.5279 9.09756 55.2975 9.02335 55.024 9.02335C54.7532 9.02335 54.524 9.09496 54.3365 9.23819C54.1516 9.38142 54.0097 9.58454 53.9107 9.84756C53.8118 10.1106 53.7623 10.4205 53.7623 10.7773Z" fill="white"/>
</svg>
