<svg width="91" height="20" viewBox="0 0 91 20" fill="none" xmlns="http://www.w3.org/2000/svg">
<path d="M91 0H0V20H91V0Z" fill="#464646"/>
<path d="M21.6696 12.0421C21.6593 12.0107 21.6451 11.9807 21.6273 11.9528C21.5231 11.7554 21.2697 11.6964 20.8718 11.7787C19.6318 12.0345 19.1517 11.8771 18.9776 11.7644C19.9841 10.2282 20.8113 8.37288 21.2584 6.6421C21.462 5.85408 21.8571 3.99933 21.3501 3.0934C21.3177 3.03139 21.2798 2.97241 21.2369 2.91715C20.2698 1.68145 18.8505 1.0186 17.1324 1.00038C16.0114 0.988526 15.0546 1.25995 14.7954 1.35993C14.667 1.33596 14.5379 1.31556 14.4084 1.29873C14.0837 1.23993 13.7548 1.20788 13.4249 1.20288C12.5382 1.18908 11.772 1.40103 11.1375 1.83333C10.4946 1.5925 7.54593 0.599576 5.7211 1.89243C4.70193 2.61445 4.23145 3.90498 4.32265 5.72823C4.35333 6.34173 4.70283 8.22873 5.25438 10.0359C5.59923 11.1658 5.9584 12.0624 6.32943 12.7224C6.74418 13.4681 7.17385 13.9174 7.61515 14.0646C7.9507 14.1764 8.46468 14.1726 9.00873 13.5186C9.60963 12.796 10.2015 12.1493 10.4672 11.8635C10.7935 12.0401 11.147 12.1353 11.5097 12.1464C11.5097 12.1474 11.5098 12.1484 11.51 12.1494C11.4468 12.2247 11.385 12.301 11.3246 12.3785C11.0704 12.7011 11.0175 12.7683 10.1994 12.9367C9.96678 12.9847 9.34863 13.1121 9.33963 13.5453C9.33775 13.6371 9.3643 13.7185 9.40855 13.7904C9.57873 14.1078 10.0998 14.2477 10.1698 14.2653C11.1707 14.5154 12.0481 14.3343 12.6984 13.7562C12.6856 15.4295 12.7565 17.0693 12.9574 17.5718C13.1233 17.9865 13.5288 19.0002 14.8093 19C14.9972 19 15.204 18.9782 15.4315 18.9294C16.7679 18.6429 17.3483 18.0522 17.5728 16.75C17.6855 16.097 17.874 14.5935 17.9769 13.6741C17.9895 13.6214 18.0036 13.5836 18.0196 13.572C18.0201 13.5716 18.0719 13.5366 18.34 13.595C18.351 13.5974 18.3621 13.5991 18.3732 13.6001L18.5637 13.6168L18.5748 13.6176C19.2099 13.6464 20.0084 13.5106 20.4732 13.2945C20.9561 13.0704 21.8275 12.5202 21.6696 12.0421ZM5.77825 9.90738C5.22063 8.08053 4.89483 6.24355 4.86903 5.72845C4.78758 4.0999 5.18185 2.96628 6.04075 2.35893C7.41828 1.38498 9.6706 1.95333 10.6218 2.26143C10.6194 2.26383 10.6168 2.266 10.6144 2.26848C9.09655 3.80148 9.13255 6.42048 9.1363 6.5806C9.13615 6.64233 9.14125 6.72978 9.14845 6.85008C9.17455 7.29055 9.22315 8.11038 9.09333 9.03888C8.97265 9.90168 9.2386 10.7462 9.82293 11.3558C9.88338 11.4189 9.94653 11.4781 10.0118 11.5338C9.75168 11.8124 9.18648 12.4283 8.5849 13.152C8.15913 13.6639 7.86513 13.5658 7.76845 13.5336C7.47453 13.4355 7.1587 13.0932 6.83988 12.5418C6.48018 11.9126 6.11725 11.0181 5.77825 9.90738ZM10.2837 13.7227C10.1553 13.6906 10.0383 13.6378 9.9595 13.5898C10.0262 13.5603 10.1376 13.5222 10.322 13.4841C11.2845 13.2861 11.4331 13.1462 11.7577 12.734C11.8321 12.6395 11.9164 12.5325 12.0332 12.402C12.0583 12.3739 12.0771 12.3407 12.0885 12.3047C12.2166 12.1912 12.2928 12.2223 12.4161 12.2734C12.5331 12.3219 12.647 12.4684 12.6933 12.6298C12.7151 12.706 12.7397 12.8507 12.6594 12.9631C11.9811 13.9125 10.9932 13.9002 10.2837 13.7227ZM11.8542 10.7317L11.8148 10.8375C11.715 11.1049 11.6223 11.3535 11.5647 11.5897C11.0642 11.5881 10.5771 11.3743 10.2069 10.9879C9.73593 10.4966 9.52203 9.8131 9.61998 9.1126C9.75708 8.13168 9.70645 7.2775 9.67923 6.81865C9.67548 6.75438 9.6721 6.69813 9.67008 6.65373C9.89185 6.45715 10.9195 5.90658 11.6523 6.07443C11.9867 6.15108 12.1905 6.3787 12.2751 6.77043C12.7136 8.79828 12.3332 9.64345 12.0275 10.3227C11.9645 10.4626 11.905 10.5948 11.8542 10.7317ZM17.3769 14.1611C17.3643 14.2937 17.3501 14.4431 17.3306 14.608L17.2211 14.9367C17.2124 14.9628 17.2078 14.99 17.2074 15.0175C17.203 15.3735 17.1669 15.5042 17.1212 15.6695C17.0736 15.8414 17.0197 16.0363 16.9866 16.4626C16.9041 17.5233 16.328 18.1326 15.1737 18.38C14.0371 18.6238 13.8355 18.0074 13.6578 17.4637C13.6396 17.4067 13.6204 17.35 13.6002 17.2938C13.4386 16.8544 13.4568 16.2348 13.4821 15.3774C13.4945 14.9565 13.4634 13.9515 13.2345 13.3928C13.2378 13.1729 13.2424 12.9496 13.2487 12.7239C13.2495 12.6953 13.2456 12.6668 13.2372 12.6395C13.23 12.5868 13.219 12.5346 13.2043 12.4835C13.1124 12.1623 12.8883 11.8935 12.6195 11.7822C12.5127 11.7379 12.3167 11.6568 12.0812 11.717C12.1314 11.51 12.2185 11.2764 12.3129 11.0233L12.3526 10.9168C12.3972 10.7968 12.4531 10.6725 12.5124 10.5409C12.8322 9.8302 13.2703 8.85693 12.7948 6.658C12.6168 5.83443 12.022 5.43228 11.1205 5.52565C10.58 5.5816 10.0856 5.7997 9.8389 5.92473C9.78945 5.94979 9.74049 5.97582 9.69205 6.0028C9.7609 5.173 10.021 3.62223 10.9938 2.64108C11.0661 2.56826 11.142 2.49917 11.2213 2.43408C11.2607 2.4264 11.2978 2.40988 11.3298 2.38578C11.8941 1.95783 12.6007 1.74783 13.4313 1.7614C13.7382 1.76643 14.0326 1.78683 14.312 1.82215C15.7662 2.08795 16.7449 2.90725 17.3389 3.60918C17.9496 4.3309 18.2803 5.0578 18.4123 5.4499C17.4199 5.34895 16.7448 5.545 16.4025 6.03415C15.6581 7.09833 16.8098 9.16383 17.3634 10.1565C17.4648 10.3384 17.5525 10.4956 17.58 10.5624C17.7603 10.9993 17.9937 11.2909 18.1641 11.5038C18.2163 11.5691 18.267 11.6324 18.3054 11.6876C18.0048 11.7742 17.4648 11.9745 17.514 12.9753C17.5048 13.0926 17.4823 13.3105 17.4515 13.5864C17.4169 13.7422 17.3988 13.9317 17.3769 14.1611ZM18.0448 12.9453C18.0144 12.3216 18.2466 12.2564 18.4923 12.1874C18.5263 12.1781 18.5601 12.1679 18.5936 12.1569C18.6253 12.185 18.6589 12.2108 18.6942 12.2342C19.122 12.5166 19.881 12.5502 20.9493 12.335C20.7981 12.4677 20.5602 12.6345 20.2344 12.7858C19.927 12.9285 19.4126 13.0356 18.9239 13.0585C18.3841 13.0837 18.1095 12.998 18.0448 12.9453ZM18.4719 5.99185C18.4675 6.25495 18.4313 6.49375 18.3929 6.74313C18.3516 7.01133 18.3089 7.28868 18.2981 7.62528C18.2874 7.95288 18.3284 8.29345 18.368 8.62285C18.4479 9.2881 18.53 9.97308 18.2124 10.6489C18.1596 10.5554 18.1126 10.4589 18.0717 10.3597C18.0321 10.264 17.9465 10.1103 17.8278 9.89755C17.3661 9.06948 16.2848 7.13035 16.8384 6.3391C17.123 5.93208 17.844 5.91453 18.4719 5.99185ZM18.6432 11.2521C18.6221 11.2252 18.6007 11.1983 18.5793 11.1716L18.5526 11.1383C19.0973 10.2387 18.9908 9.34863 18.896 8.5594C18.8571 8.23555 18.8203 7.9297 18.8296 7.64245C18.8393 7.33788 18.8796 7.07673 18.9185 6.82413C18.9664 6.51288 19.0151 6.1909 19.0017 5.81125C19.0117 5.77143 19.0158 5.7244 19.0105 5.6686C18.9762 5.30448 18.5606 4.2151 17.7135 3.22885C17.2578 2.69838 16.5963 2.10595 15.6968 1.69923C16.0906 1.61928 16.6214 1.5466 17.2151 1.5598C18.7537 1.594 19.971 2.16993 20.8332 3.2716C20.8515 3.29552 20.8683 3.32062 20.8833 3.34675C21.4256 4.36345 20.6761 8.05308 18.6432 11.2521ZM12.0308 6.66498C12.012 6.79953 11.7991 6.98185 11.565 6.98185C11.5447 6.98186 11.5244 6.98046 11.5043 6.97765C11.3638 6.95815 11.2219 6.86965 11.1249 6.74095C11.0905 6.69558 11.0346 6.60745 11.0457 6.52765C11.0499 6.49758 11.0653 6.45378 11.1151 6.41605C11.2038 6.349 11.379 6.3241 11.5723 6.35103C11.8095 6.3841 12.0543 6.49638 12.0308 6.66498ZM17.9787 6.35643C17.987 6.41583 17.9419 6.50718 17.8638 6.58908C17.8126 6.64285 17.7048 6.73615 17.5579 6.75648C17.5393 6.75907 17.5205 6.76037 17.5017 6.76038C17.2815 6.76038 17.0956 6.58458 17.0811 6.4816C17.0631 6.34923 17.2792 6.24865 17.502 6.2176C17.7247 6.18655 17.9603 6.2242 17.9787 6.35643Z" fill="white"/>
<path d="M24.3105 14V6H27.4667C28.0735 6 28.5904 6.11589 29.0175 6.34766C29.4446 6.57682 29.7701 6.89583 29.994 7.30469C30.2206 7.71094 30.3339 8.17969 30.3339 8.71094C30.3339 9.24219 30.2193 9.71094 29.9901 10.1172C29.761 10.5234 29.4289 10.8398 28.994 11.0664C28.5618 11.293 28.0383 11.4062 27.4237 11.4062H25.412V10.0508H27.1503C27.4758 10.0508 27.744 9.99479 27.955 9.88281C28.1685 9.76823 28.3274 9.61068 28.4315 9.41016C28.5383 9.20703 28.5917 8.97396 28.5917 8.71094C28.5917 8.44531 28.5383 8.21354 28.4315 8.01562C28.3274 7.8151 28.1685 7.66016 27.955 7.55078C27.7414 7.4388 27.4706 7.38281 27.1425 7.38281H26.0019V14H24.3105ZM34.0155 14.1172C33.4088 14.1172 32.884 13.9883 32.4413 13.7305C32.0012 13.4701 31.6614 13.1081 31.4218 12.6445C31.1822 12.1784 31.0624 11.638 31.0624 11.0234C31.0624 10.4036 31.1822 9.86198 31.4218 9.39844C31.6614 8.93229 32.0012 8.57031 32.4413 8.3125C32.884 8.05208 33.4088 7.92188 34.0155 7.92188C34.6223 7.92188 35.1457 8.05208 35.5858 8.3125C36.0286 8.57031 36.3697 8.93229 36.6093 9.39844C36.8489 9.86198 36.9687 10.4036 36.9687 11.0234C36.9687 11.638 36.8489 12.1784 36.6093 12.6445C36.3697 13.1081 36.0286 13.4701 35.5858 13.7305C35.1457 13.9883 34.6223 14.1172 34.0155 14.1172ZM34.0233 12.8281C34.2994 12.8281 34.5299 12.75 34.7148 12.5938C34.8996 12.4349 35.039 12.2187 35.1327 11.9453C35.2291 11.6719 35.2773 11.3607 35.2773 11.0117C35.2773 10.6628 35.2291 10.3516 35.1327 10.0781C35.039 9.80469 34.8996 9.58854 34.7148 9.42969C34.5299 9.27083 34.2994 9.19141 34.0233 9.19141C33.7447 9.19141 33.5103 9.27083 33.3202 9.42969C33.1327 9.58854 32.9908 9.80469 32.8944 10.0781C32.8007 10.3516 32.7538 10.6628 32.7538 11.0117C32.7538 11.3607 32.8007 11.6719 32.8944 11.9453C32.9908 12.2187 33.1327 12.4349 33.3202 12.5938C33.5103 12.75 33.7447 12.8281 34.0233 12.8281ZM43.0429 9.71094L41.5194 9.80469C41.4934 9.67448 41.4374 9.55729 41.3515 9.45312C41.2655 9.34635 41.1523 9.26172 41.0116 9.19922C40.8736 9.13411 40.7082 9.10156 40.5155 9.10156C40.2577 9.10156 40.0403 9.15625 39.8632 9.26562C39.6861 9.3724 39.5976 9.51562 39.5976 9.69531C39.5976 9.83854 39.6549 9.95964 39.7694 10.0586C39.884 10.1576 40.0806 10.237 40.3593 10.2969L41.4452 10.5156C42.0286 10.6354 42.4635 10.8281 42.7499 11.0937C43.0364 11.3594 43.1796 11.7083 43.1796 12.1406C43.1796 12.5339 43.0637 12.8789 42.8319 13.1758C42.6028 13.4727 42.2877 13.7044 41.8866 13.8711C41.4882 14.0352 41.0286 14.1172 40.5077 14.1172C39.7135 14.1172 39.0806 13.9518 38.6093 13.6211C38.1405 13.2878 37.8658 12.8346 37.7851 12.2617L39.4218 12.1758C39.4713 12.418 39.5911 12.6029 39.7812 12.7305C39.9713 12.8555 40.2148 12.918 40.5116 12.918C40.8033 12.918 41.0377 12.862 41.2148 12.75C41.3944 12.6354 41.4856 12.4883 41.4882 12.3086C41.4856 12.1576 41.4218 12.0339 41.2968 11.9375C41.1718 11.8385 40.9791 11.763 40.7187 11.7109L39.6796 11.5039C39.0937 11.3867 38.6575 11.1836 38.371 10.8945C38.0871 10.6055 37.9452 10.237 37.9452 9.78906C37.9452 9.40365 38.0494 9.07161 38.2577 8.79297C38.4687 8.51432 38.7642 8.29948 39.1444 8.14844C39.5273 7.9974 39.9752 7.92188 40.4882 7.92188C41.246 7.92188 41.8424 8.08203 42.2773 8.40234C42.7148 8.72266 42.97 9.15885 43.0429 9.71094ZM47.4189 8V9.25H43.8056V8H47.4189ZM44.6259 6.5625H46.2899V12.1562C46.2899 12.3099 46.3134 12.4297 46.3603 12.5156C46.4071 12.599 46.4722 12.6576 46.5556 12.6914C46.6415 12.7253 46.7405 12.7422 46.8524 12.7422C46.9306 12.7422 47.0087 12.7357 47.0868 12.7227C47.1649 12.707 47.2248 12.6953 47.2665 12.6875L47.5282 13.9258C47.4449 13.9518 47.3277 13.9818 47.1767 14.0156C47.0256 14.0521 46.842 14.0742 46.6259 14.082C46.2248 14.0977 45.8733 14.0443 45.5712 13.9219C45.2717 13.7995 45.0386 13.6094 44.872 13.3516C44.7053 13.0937 44.6233 12.7682 44.6259 12.375V6.5625ZM51.1415 16.375C50.6024 16.375 50.1402 16.3008 49.7548 16.1523C49.372 16.0065 49.0673 15.8073 48.8407 15.5547C48.6142 15.3021 48.467 15.0182 48.3993 14.7031L49.9384 14.4961C49.9853 14.6159 50.0595 14.7279 50.161 14.832C50.2626 14.9362 50.3967 15.0195 50.5634 15.082C50.7327 15.1471 50.9384 15.1797 51.1806 15.1797C51.5426 15.1797 51.8407 15.0911 52.0751 14.9141C52.3121 14.7396 52.4306 14.4466 52.4306 14.0352V12.9375H52.3603C52.2873 13.1042 52.178 13.2617 52.0321 13.4102C51.8863 13.5586 51.6988 13.6797 51.4696 13.7734C51.2405 13.8672 50.967 13.9141 50.6493 13.9141C50.1988 13.9141 49.7886 13.8099 49.4189 13.6016C49.0517 13.3906 48.7587 13.069 48.5399 12.6367C48.3238 12.2018 48.2157 11.6523 48.2157 10.9883C48.2157 10.3086 48.3264 9.74089 48.5478 9.28516C48.7691 8.82943 49.0634 8.48828 49.4306 8.26172C49.8004 8.03516 50.2053 7.92188 50.6454 7.92188C50.9814 7.92188 51.2626 7.97917 51.4892 8.09375C51.7157 8.20573 51.898 8.34635 52.036 8.51562C52.1767 8.68229 52.2847 8.84635 52.3603 9.00781H52.4228V8H54.0751V14.0586C54.0751 14.569 53.9501 14.9961 53.7001 15.3398C53.4501 15.6836 53.1037 15.9414 52.661 16.1133C52.2209 16.2878 51.7144 16.375 51.1415 16.375ZM51.1767 12.6641C51.4449 12.6641 51.6715 12.5977 51.8564 12.4648C52.0439 12.3294 52.1871 12.1367 52.286 11.8867C52.3876 11.6341 52.4384 11.332 52.4384 10.9805C52.4384 10.6289 52.3889 10.3242 52.2899 10.0664C52.191 9.80599 52.0478 9.60417 51.8603 9.46094C51.6728 9.31771 51.4449 9.24609 51.1767 9.24609C50.9032 9.24609 50.6728 9.32031 50.4853 9.46875C50.2978 9.61458 50.1558 9.81771 50.0595 10.0781C49.9631 10.3385 49.9149 10.6393 49.9149 10.9805C49.9149 11.3268 49.9631 11.6263 50.0595 11.8789C50.1584 12.1289 50.3004 12.3229 50.4853 12.4609C50.6728 12.5964 50.9032 12.6641 51.1767 12.6641ZM55.3993 14V8H57.0126V9.04687H57.0751C57.1845 8.67448 57.3681 8.39323 57.6259 8.20313C57.8837 8.01042 58.1806 7.91406 58.5165 7.91406C58.5998 7.91406 58.6897 7.91927 58.786 7.92969C58.8824 7.9401 58.967 7.95443 59.0399 7.97266V9.44922C58.9618 9.42578 58.8537 9.40495 58.7157 9.38672C58.5777 9.36849 58.4514 9.35938 58.3368 9.35938C58.092 9.35938 57.8733 9.41276 57.6806 9.51953C57.4905 9.6237 57.3394 9.76953 57.2274 9.95703C57.1181 10.1445 57.0634 10.3607 57.0634 10.6055V14H55.3993ZM62.3554 14.1172C61.7382 14.1172 61.2069 13.9922 60.7616 13.7422C60.3189 13.4896 59.9778 13.1328 59.7382 12.6719C59.4986 12.2083 59.3788 11.6602 59.3788 11.0273C59.3788 10.4102 59.4986 9.86849 59.7382 9.40234C59.9778 8.9362 60.315 8.57292 60.7499 8.3125C61.1874 8.05208 61.7004 7.92188 62.289 7.92188C62.6848 7.92188 63.0533 7.98568 63.3944 8.11328C63.7382 8.23828 64.0377 8.42708 64.2929 8.67969C64.5507 8.93229 64.7512 9.25 64.8944 9.63281C65.0377 10.013 65.1093 10.4583 65.1093 10.9687V11.4258H60.0429V10.3945H63.5429C63.5429 10.1549 63.4908 9.94271 63.3866 9.75781C63.2825 9.57292 63.1379 9.42839 62.953 9.32422C62.7707 9.21745 62.5585 9.16406 62.3163 9.16406C62.0637 9.16406 61.8398 9.22266 61.6444 9.33984C61.4517 9.45443 61.3007 9.60937 61.1913 9.80469C61.0819 9.9974 61.026 10.2122 61.0233 10.4492V11.4297C61.0233 11.7266 61.078 11.9831 61.1874 12.1992C61.2994 12.4154 61.4569 12.582 61.6601 12.6992C61.8632 12.8164 62.1041 12.875 62.3827 12.875C62.5676 12.875 62.7369 12.849 62.8905 12.7969C63.0442 12.7448 63.1757 12.6667 63.2851 12.5625C63.3944 12.4583 63.4778 12.3307 63.5351 12.1797L65.0741 12.2812C64.996 12.651 64.8358 12.974 64.5937 13.25C64.3541 13.5234 64.0442 13.737 63.664 13.8906C63.2864 14.0417 62.8502 14.1172 62.3554 14.1172ZM70.5663 8.30078C70.5351 7.98568 70.401 7.74089 70.164 7.56641C69.927 7.39193 69.6054 7.30469 69.1991 7.30469C68.9231 7.30469 68.69 7.34375 68.4999 7.42187C68.3098 7.4974 68.164 7.60286 68.0624 7.73828C67.9635 7.8737 67.914 8.02734 67.914 8.19922C67.9088 8.34245 67.9387 8.46745 68.0038 8.57422C68.0715 8.68099 68.164 8.77344 68.2812 8.85156C68.3983 8.92708 68.5338 8.99349 68.6874 9.05078C68.8411 9.10547 69.0051 9.15234 69.1796 9.19141L69.8983 9.36328C70.2473 9.44141 70.5676 9.54557 70.8593 9.67578C71.151 9.80599 71.4036 9.96615 71.6171 10.1562C71.8306 10.3464 71.996 10.5703 72.1132 10.8281C72.233 11.0859 72.2942 11.3815 72.2968 11.7148C72.2942 12.2044 72.1692 12.6289 71.9218 12.9883C71.677 13.3451 71.3228 13.6224 70.8593 13.8203C70.3983 14.0156 69.8424 14.1133 69.1913 14.1133C68.5455 14.1133 67.983 14.0143 67.5038 13.8164C67.0273 13.6185 66.6549 13.3255 66.3866 12.9375C66.121 12.5469 65.9817 12.0638 65.9687 11.4883H67.6054C67.6236 11.7565 67.7004 11.9805 67.8358 12.1602C67.9739 12.3372 68.1575 12.4714 68.3866 12.5625C68.6184 12.651 68.8801 12.6953 69.1718 12.6953C69.4582 12.6953 69.7069 12.6536 69.9179 12.5703C70.1314 12.487 70.2968 12.3711 70.414 12.2227C70.5312 12.0742 70.5898 11.9036 70.5898 11.7109C70.5898 11.5312 70.5364 11.3802 70.4296 11.2578C70.3254 11.1354 70.1718 11.0312 69.9687 10.9453C69.7681 10.8594 69.522 10.7812 69.2304 10.7109L68.3593 10.4922C67.6848 10.3281 67.1523 10.0716 66.7616 9.72266C66.371 9.3737 66.177 8.90365 66.1796 8.3125C66.177 7.82812 66.3059 7.40495 66.5663 7.04297C66.8293 6.68099 67.19 6.39844 67.6483 6.19531C68.1067 5.99219 68.6275 5.89062 69.2108 5.89062C69.8046 5.89062 70.3228 5.99219 70.7655 6.19531C71.2108 6.39844 71.5572 6.68099 71.8046 7.04297C72.052 7.40495 72.1796 7.82422 72.1874 8.30078H70.5663ZM76.454 11.2188H77.8915L78.6142 12.1484L79.3251 12.9766L80.6649 14.6563H79.0868L78.1649 13.5234L77.6923 12.8516L76.454 11.2188ZM80.786 10C80.786 10.8724 80.6207 11.6146 80.2899 12.2266C79.9618 12.8385 79.5139 13.306 78.9462 13.6289C78.3811 13.9492 77.7457 14.1094 77.0399 14.1094C76.329 14.1094 75.691 13.9479 75.1259 13.625C74.5608 13.3021 74.1142 12.8346 73.786 12.2227C73.4579 11.6107 73.2939 10.8698 73.2939 10C73.2939 9.1276 73.4579 8.38542 73.786 7.77344C74.1142 7.16146 74.5608 6.69531 75.1259 6.375C75.691 6.05208 76.329 5.89062 77.0399 5.89062C77.7457 5.89062 78.3811 6.05208 78.9462 6.375C79.5139 6.69531 79.9618 7.16146 80.2899 7.77344C80.6207 8.38542 80.786 9.1276 80.786 10ZM79.0712 10C79.0712 9.4349 78.9866 8.95833 78.8173 8.57031C78.6506 8.18229 78.4149 7.88802 78.1103 7.6875C77.8056 7.48698 77.4488 7.38672 77.0399 7.38672C76.6311 7.38672 76.2743 7.48698 75.9696 7.6875C75.6649 7.88802 75.428 8.18229 75.2587 8.57031C75.092 8.95833 75.0087 9.4349 75.0087 10C75.0087 10.5651 75.092 11.0417 75.2587 11.4297C75.428 11.8177 75.6649 12.112 75.9696 12.3125C76.2743 12.513 76.6311 12.6133 77.0399 12.6133C77.4488 12.6133 77.8056 12.513 78.1103 12.3125C78.4149 12.112 78.6506 11.8177 78.8173 11.4297C78.9866 11.0417 79.0712 10.5651 79.0712 10ZM82.039 14V6H83.7304V12.6055H87.1601V14H82.039Z" fill="white"/>
</svg>
