<svg width="67" height="20" viewBox="0 0 67 20" fill="none" xmlns="http://www.w3.org/2000/svg">
<g clip-path="url(#clip0_2_42)">
<path d="M67 0H0V20H67V0Z" fill="#464646"/>
<path d="M24.9829 14V6H28.1392C28.7459 6 29.2629 6.11589 29.6899 6.34766C30.117 6.57682 30.4425 6.89583 30.6665 7.30469C30.8931 7.71094 31.0063 8.17969 31.0063 8.71094C31.0063 9.24219 30.8918 9.71094 30.6626 10.1172C30.4334 10.5234 30.1014 10.8398 29.6665 11.0664C29.2342 11.293 28.7108 11.4062 28.0962 11.4062H26.0845V10.0508H27.8228C28.1483 10.0508 28.4165 9.99479 28.6274 9.88281C28.841 9.76823 28.9998 9.61068 29.104 9.41016C29.2108 9.20703 29.2642 8.97396 29.2642 8.71094C29.2642 8.44531 29.2108 8.21354 29.104 8.01562C28.9998 7.8151 28.841 7.66016 28.6274 7.55078C28.4139 7.4388 28.1431 7.38281 27.8149 7.38281H26.6743V14H24.9829ZM33.1011 16.25C32.8901 16.25 32.6922 16.2331 32.5073 16.1992C32.325 16.168 32.174 16.1276 32.0542 16.0781L32.4292 14.8359C32.6245 14.8958 32.8003 14.9284 32.9565 14.9336C33.1154 14.9388 33.2521 14.9023 33.3667 14.8242C33.4839 14.7461 33.5789 14.6133 33.6519 14.4258L33.7495 14.1719L31.5972 8H33.3472L34.5894 12.4062H34.6519L35.9058 8H37.6675L35.3354 14.6484C35.2235 14.9714 35.0711 15.2526 34.8784 15.4922C34.6883 15.7344 34.4474 15.9206 34.1558 16.0508C33.8641 16.1836 33.5125 16.25 33.1011 16.25ZM41.7104 8V9.25H38.0972V8H41.7104ZM38.9175 6.5625H40.5815V12.1562C40.5815 12.3099 40.605 12.4297 40.6519 12.5156C40.6987 12.599 40.7638 12.6576 40.8472 12.6914C40.9331 12.7253 41.0321 12.7422 41.144 12.7422C41.2222 12.7422 41.3003 12.7357 41.3784 12.7227C41.4565 12.707 41.5164 12.6953 41.5581 12.6875L41.8198 13.9258C41.7365 13.9518 41.6193 13.9818 41.4683 14.0156C41.3172 14.0521 41.1336 14.0742 40.9175 14.082C40.5164 14.0977 40.1649 14.0443 39.8628 13.9219C39.5633 13.7995 39.3302 13.6094 39.1636 13.3516C38.9969 13.0937 38.9149 12.7682 38.9175 12.375V6.5625ZM44.5874 10.5313V14H42.9233V6H44.5405V9.05859H44.6108C44.7463 8.70443 44.965 8.42708 45.2671 8.22656C45.5692 8.02344 45.9481 7.92188 46.4038 7.92188C46.8205 7.92188 47.1838 8.01302 47.4937 8.19531C47.8062 8.375 48.0483 8.63411 48.2202 8.97266C48.3947 9.30859 48.4806 9.71094 48.478 10.1797V14H46.814V10.4766C46.8166 10.1068 46.7228 9.81901 46.5327 9.61328C46.3452 9.40755 46.0822 9.30469 45.7437 9.30469C45.5171 9.30469 45.3166 9.35286 45.1421 9.44922C44.9702 9.54557 44.8348 9.6862 44.7358 9.87109C44.6395 10.0534 44.59 10.2734 44.5874 10.5313ZM52.4985 14.1172C51.8918 14.1172 51.367 13.9883 50.9243 13.7305C50.4842 13.4701 50.1444 13.1081 49.9048 12.6445C49.6652 12.1784 49.5454 11.638 49.5454 11.0234C49.5454 10.4036 49.6652 9.86198 49.9048 9.39844C50.1444 8.93229 50.4842 8.57031 50.9243 8.3125C51.367 8.05208 51.8918 7.92188 52.4985 7.92188C53.1053 7.92188 53.6287 8.05208 54.0688 8.3125C54.5116 8.57031 54.8527 8.93229 55.0923 9.39844C55.3319 9.86198 55.4517 10.4036 55.4517 11.0234C55.4517 11.638 55.3319 12.1784 55.0923 12.6445C54.8527 13.1081 54.5116 13.4701 54.0688 13.7305C53.6287 13.9883 53.1053 14.1172 52.4985 14.1172ZM52.5063 12.8281C52.7824 12.8281 53.0129 12.75 53.1978 12.5938C53.3826 12.4349 53.522 12.2187 53.6157 11.9453C53.7121 11.6719 53.7603 11.3607 53.7603 11.0117C53.7603 10.6628 53.7121 10.3516 53.6157 10.0781C53.522 9.80469 53.3826 9.58854 53.1978 9.42969C53.0129 9.27083 52.7824 9.19141 52.5063 9.19141C52.2277 9.19141 51.9933 9.27083 51.8032 9.42969C51.6157 9.58854 51.4738 9.80469 51.3774 10.0781C51.2837 10.3516 51.2368 10.6628 51.2368 11.0117C51.2368 11.3607 51.2837 11.6719 51.3774 11.9453C51.4738 12.2187 51.6157 12.4349 51.8032 12.5938C51.9933 12.75 52.2277 12.8281 52.5063 12.8281ZM58.1978 10.5313V14H56.5337V8H58.1196V9.05859H58.1899C58.3228 8.70964 58.5454 8.43359 58.8579 8.23047C59.1704 8.02474 59.5493 7.92188 59.9946 7.92188C60.4113 7.92188 60.7746 8.01302 61.0845 8.19531C61.3944 8.3776 61.6353 8.63802 61.8071 8.97656C61.979 9.3125 62.0649 9.71354 62.0649 10.1797V14H60.4009V10.4766C60.4035 10.1094 60.3097 9.82292 60.1196 9.61719C59.9295 9.40885 59.6678 9.30469 59.3345 9.30469C59.1105 9.30469 58.9126 9.35286 58.7407 9.44922C58.5715 9.54557 58.4386 9.6862 58.3423 9.87109C58.2485 10.0534 58.2004 10.2734 58.1978 10.5313Z" fill="white"/>
<path d="M14.6875 1.135L15.3625 1.285L15.91 1.48L16.3525 1.705L16.69 1.945L16.945 2.2L17.1325 2.455L17.2525 2.7025L17.3275 2.9275L17.3575 3.1225L17.3725 3.2725L17.365 3.37V7.375L17.3275 7.8475L17.23 8.26L17.0725 8.605L16.8775 8.89L16.6525 9.1225L16.405 9.31L16.1425 9.4525L15.88 9.5575L15.6325 9.6325L15.4075 9.685L15.2125 9.715L15.055 9.73H10.5775L10.06 9.7675L9.6175 9.8725L9.2425 10.0375L8.935 10.24L8.6875 10.48L8.485 10.7425L8.335 11.0125L8.2225 11.29L8.1475 11.5525L8.095 11.7925L8.065 11.995L8.05 12.1525V14.4475H6.3775L6.22 14.425L6.01 14.3725L5.77 14.2825L5.5075 14.1475L5.2375 13.9525L4.9675 13.6825L4.705 13.3375L4.465 12.895L4.255 12.3475L4.0975 11.6875L3.9925 10.9L3.955 9.9775L4 9.0625L4.12 8.2825L4.3 7.63L4.54 7.0975L4.81 6.67L5.11 6.34L5.425 6.0925L5.74 5.9125L6.04 5.7925L6.31 5.7175L6.55 5.68L6.73 5.6725H6.85L6.895 5.68H13.015V5.0575H8.635L8.6275 2.995L8.6125 2.7175L8.65 2.4625L8.7325 2.23L8.86 2.02L9.0475 1.825L9.28 1.6525L9.565 1.5025L9.895 1.3675L10.2775 1.255L10.7125 1.165L11.1925 1.09L11.725 1.045L12.3025 1.015L12.9325 1L13.885 1.0375L14.6875 1.135ZM9.9625 2.62L9.79 2.8675L9.73 3.175L9.79 3.4825L9.9625 3.7375L10.21 3.9025L10.5175 3.97L10.825 3.9025L11.0725 3.7375L11.245 3.4825L11.305 3.175L11.245 2.8675L11.0725 2.62L10.825 2.455L10.5175 2.3875L10.21 2.455L9.9625 2.62ZM19.78 5.5825L19.99 5.6275L20.23 5.7175L20.4925 5.8525L20.7625 6.055L21.0325 6.3175L21.295 6.67L21.535 7.1125L21.745 7.66L21.9025 8.32L22.0075 9.1L22.045 10.0225L22 10.945L21.88 11.725L21.7 12.37L21.46 12.9025L21.19 13.33L20.89 13.6675L20.575 13.915L20.26 14.095L19.96 14.215L19.69 14.2825L19.45 14.32L19.27 14.335L19.15 14.3275H12.985V14.9425H17.365L17.3725 17.0125L17.3875 17.2825L17.35 17.5375L17.2675 17.77L17.14 17.9875L16.9525 18.175L16.72 18.355L16.435 18.505L16.105 18.6325L15.7225 18.745L15.2875 18.8425L14.8075 18.91L14.275 18.9625L13.6975 18.9925L13.0675 19L12.115 18.97L11.3125 18.865L10.6375 18.715L10.09 18.5275L9.6475 18.3025L9.31 18.055L9.055 17.8L8.8675 17.545L8.7475 17.2975L8.6725 17.0725L8.6425 16.885L8.6275 16.735L8.635 16.6375V12.6325L8.6725 12.1525L8.77 11.7475L8.9275 11.4025L9.1225 11.1175L9.3475 10.8775L9.595 10.6975L9.8575 10.5475L10.12 10.4425L10.3675 10.3675L10.5925 10.3225L10.7875 10.2925L10.945 10.2775L11.0425 10.27H15.4225L15.94 10.2325L16.3825 10.1275L16.7575 9.97L17.065 9.76L17.3125 9.52L17.515 9.2575L17.665 8.9875L17.7775 8.7175L17.8525 8.455L17.905 8.215L17.935 8.005L17.95 7.8475V5.5525H19.5175L19.6225 5.56L19.78 5.5825ZM14.9275 16.27L14.755 16.5175L14.695 16.825L14.755 17.1325L14.9275 17.38L15.175 17.5525L15.4825 17.6125L15.79 17.5525L16.0375 17.38L16.21 17.1325L16.27 16.825L16.21 16.5175L16.0375 16.27L15.79 16.0975L15.4825 16.0375L15.175 16.0975L14.9275 16.27Z" fill="white"/>
</g>
<defs>
<clipPath id="clip0_2_42">
<rect width="67" height="20" fill="white"/>
</clipPath>
</defs>
</svg>
