<svg width="80" height="20" viewBox="0 0 80 20" fill="none" xmlns="http://www.w3.org/2000/svg">
<rect width="80" height="20" fill="#464646"/>
<path d="M16.1479 12.702C15.8179 12.6946 15.4963 12.7788 15.2468 12.938C14.9973 13.0972 14.8383 13.3196 14.8013 13.5611C14.7997 13.5658 14.7996 13.5707 14.8009 13.5754C14.8023 13.5801 14.8052 13.5845 14.8093 13.5883C14.8134 13.5921 14.8186 13.5951 14.8246 13.5971C14.8305 13.5991 14.837 13.6001 14.8436 13.6H17.4574C17.4634 13.6 17.4694 13.5991 17.4749 13.5973C17.4804 13.5955 17.4853 13.5928 17.4893 13.5895C17.4933 13.5862 17.4963 13.5823 17.4981 13.5781C17.4999 13.5738 17.5004 13.5694 17.4997 13.565C17.474 13.3191 17.3176 13.0906 17.0646 12.9291C16.8115 12.7675 16.4821 12.6859 16.1479 12.702Z" fill="white"/>
<path d="M21.7495 3.59941L15.9364 9.84118C15.9198 9.85834 15.8996 9.87203 15.8773 9.8814C15.8549 9.89077 15.8307 9.8956 15.8063 9.8956C15.7818 9.8956 15.7576 9.89077 15.7352 9.8814C15.7129 9.87203 15.6927 9.85834 15.6761 9.84118L12.7087 6.91353C12.6835 6.88348 12.6698 6.84614 12.6698 6.80765C12.6698 6.76916 12.6835 6.73181 12.7087 6.70177L13.6886 5.5C13.705 5.47814 13.7266 5.46033 13.7516 5.44804C13.7767 5.43576 13.8044 5.42935 13.8325 5.42935C13.8607 5.42935 13.8884 5.43576 13.9134 5.44804C13.9385 5.46033 13.9601 5.47814 13.9765 5.5L15.6374 7.25765C15.654 7.27657 15.6748 7.29179 15.6982 7.30223C15.7216 7.31267 15.7472 7.31808 15.773 7.31808C15.7989 7.31808 15.8244 7.31267 15.8479 7.30223C15.8713 7.29179 15.892 7.27657 15.9087 7.25765L20.5371 1.19059C20.5499 1.17266 20.5576 1.15176 20.5591 1.13006C20.5607 1.10836 20.5562 1.08666 20.546 1.0672C20.5358 1.04775 20.5204 1.03126 20.5013 1.01944C20.4822 1.00762 20.4601 1.00091 20.4374 1H4.13841C4.1017 1 4.0665 1.01394 4.04054 1.03877C4.01458 1.06359 4 1.09725 4 1.13235V18.8676C4 18.9028 4.01458 18.9364 4.04054 18.9612C4.0665 18.9861 4.1017 19 4.13841 19H21.8547C21.8914 19 21.9266 18.9861 21.9526 18.9612C21.9785 18.9364 21.9931 18.9028 21.9931 18.8676V3.67882C22.0041 3.64793 22.0019 3.61413 21.9868 3.58484C21.9717 3.55555 21.9451 3.53318 21.9128 3.52265C21.8805 3.51212 21.8452 3.51429 21.8146 3.52868C21.7839 3.54308 21.7605 3.56852 21.7495 3.59941ZM9.01593 17.0253C7.8529 17.0813 6.71285 16.7015 5.83807 15.9665C5.81043 15.9365 5.79518 15.8979 5.79518 15.8579C5.79518 15.818 5.81043 15.7794 5.83807 15.7494L6.53011 14.8229C6.54154 14.804 6.55682 14.7874 6.57506 14.7741C6.59329 14.7609 6.61412 14.7513 6.6363 14.7458C6.65849 14.7404 6.68158 14.7393 6.70423 14.7425C6.72688 14.7458 6.74862 14.7533 6.76817 14.7647C7.40036 15.3252 8.23135 15.6355 9.09344 15.6329C10.0014 15.6329 10.4443 15.2306 10.4443 14.8071C10.4443 13.4941 5.97094 14.3941 5.97094 11.5988C5.97094 10.3653 7.07821 9.33824 8.91627 9.33824C9.97111 9.30237 11.0038 9.63341 11.8229 10.27C11.8536 10.3006 11.8708 10.3414 11.8708 10.3838C11.8708 10.4263 11.8536 10.4671 11.8229 10.4976L11.1419 11.4029C11.1278 11.4209 11.11 11.436 11.0896 11.4472C11.0693 11.4583 11.0467 11.4654 11.0233 11.4679C11 11.4703 10.9763 11.4682 10.9539 11.4616C10.9314 11.455 10.9106 11.444 10.8927 11.4294C10.2888 10.9704 9.53825 10.7237 8.76679 10.7306C8.05814 10.7306 7.65952 11.0324 7.65952 11.4771C7.65952 12.6576 12.1218 11.8688 12.1218 14.6535C12.1218 15.9982 11.1087 17.0253 9.01039 17.0253H9.01593ZM18.771 14.4471C18.7717 14.4667 18.7683 14.4863 18.7607 14.5047C18.7532 14.523 18.7418 14.5396 18.7273 14.5535C18.7127 14.5674 18.6953 14.5783 18.6762 14.5855C18.657 14.5927 18.6365 14.596 18.6159 14.5953H14.5191C14.5125 14.596 14.5061 14.5978 14.5003 14.6009C14.4946 14.6039 14.4895 14.608 14.4853 14.6129C14.4812 14.6178 14.4782 14.6235 14.4763 14.6296C14.4745 14.6356 14.474 14.642 14.4748 14.6482C14.5412 15.0143 14.7485 15.3434 15.0559 15.5707C15.3632 15.798 15.7484 15.9071 16.1357 15.8765C16.6438 15.8662 17.1372 15.7114 17.553 15.4318C17.5692 15.4188 17.5881 15.4092 17.6085 15.4037C17.6289 15.3982 17.6502 15.3969 17.6712 15.3999C17.6921 15.4029 17.7121 15.4102 17.7299 15.4211C17.7477 15.4321 17.7629 15.4465 17.7744 15.4635L18.2727 16.1571C18.2935 16.1879 18.3016 16.2249 18.2954 16.2611C18.2893 16.2973 18.2694 16.33 18.2395 16.3529C17.5817 16.812 16.7836 17.0502 15.9696 17.0306C15.5629 17.0523 15.156 16.9925 14.7749 16.855C14.3938 16.7175 14.047 16.5054 13.7566 16.2322C13.4663 15.9591 13.2389 15.6309 13.0889 15.2688C12.9389 14.9067 12.8698 14.5186 12.8858 14.1294C12.8745 13.7496 12.9439 13.3715 13.0897 13.018C13.2356 12.6645 13.4548 12.343 13.7342 12.0728C14.0137 11.8026 14.3475 11.5894 14.7155 11.4461C15.0835 11.3027 15.4781 11.2322 15.8755 11.2388C17.5973 11.2388 18.7654 12.4724 18.7654 14.2776L18.771 14.4471Z" fill="white"/>
<path d="M30.5005 8.30078C30.4692 7.98568 30.3351 7.74089 30.0981 7.56641C29.8612 7.39193 29.5396 7.30469 29.1333 7.30469C28.8573 7.30469 28.6242 7.34375 28.4341 7.42187C28.244 7.4974 28.0981 7.60286 27.9966 7.73828C27.8976 7.8737 27.8481 8.02734 27.8481 8.19922C27.8429 8.34245 27.8729 8.46745 27.938 8.57422C28.0057 8.68099 28.0981 8.77344 28.2153 8.85156C28.3325 8.92708 28.4679 8.99349 28.6216 9.05078C28.7752 9.10547 28.9393 9.15234 29.1138 9.19141L29.8325 9.36328C30.1815 9.44141 30.5018 9.54557 30.7935 9.67578C31.0851 9.80599 31.3377 9.96615 31.5513 10.1562C31.7648 10.3464 31.9302 10.5703 32.0474 10.8281C32.1672 11.0859 32.2284 11.3815 32.231 11.7148C32.2284 12.2044 32.1034 12.6289 31.856 12.9883C31.6112 13.3451 31.257 13.6224 30.7935 13.8203C30.3325 14.0156 29.7765 14.1133 29.1255 14.1133C28.4797 14.1133 27.9172 14.0143 27.438 13.8164C26.9614 13.6185 26.589 13.3255 26.3208 12.9375C26.0552 12.5469 25.9159 12.0638 25.9028 11.4883H27.5396C27.5578 11.7565 27.6346 11.9805 27.77 12.1602C27.908 12.3372 28.0916 12.4714 28.3208 12.5625C28.5526 12.651 28.8143 12.6953 29.106 12.6953C29.3924 12.6953 29.6411 12.6536 29.8521 12.5703C30.0656 12.487 30.231 12.3711 30.3481 12.2227C30.4653 12.0742 30.5239 11.9036 30.5239 11.7109C30.5239 11.5312 30.4705 11.3802 30.3638 11.2578C30.2596 11.1354 30.106 11.0312 29.9028 10.9453C29.7023 10.8594 29.4562 10.7812 29.1646 10.7109L28.2935 10.4922C27.619 10.3281 27.0864 10.0716 26.6958 9.72266C26.3052 9.3737 26.1112 8.90365 26.1138 8.3125C26.1112 7.82812 26.2401 7.40495 26.5005 7.04297C26.7635 6.68099 27.1242 6.39844 27.5825 6.19531C28.0409 5.99219 28.5617 5.89062 29.145 5.89062C29.7388 5.89062 30.257 5.99219 30.6997 6.19531C31.145 6.39844 31.4914 6.68099 31.7388 7.04297C31.9862 7.40495 32.1138 7.82422 32.1216 8.30078H30.5005ZM36.0718 14.1172C35.4546 14.1172 34.9233 13.9922 34.478 13.7422C34.0353 13.4896 33.6942 13.1328 33.4546 12.6719C33.215 12.2083 33.0952 11.6602 33.0952 11.0273C33.0952 10.4102 33.215 9.86849 33.4546 9.40234C33.6942 8.9362 34.0314 8.57292 34.4663 8.3125C34.9038 8.05208 35.4168 7.92188 36.0054 7.92188C36.4012 7.92188 36.7697 7.98568 37.1108 8.11328C37.4546 8.23828 37.7541 8.42708 38.0093 8.67969C38.2671 8.93229 38.4676 9.25 38.6108 9.63281C38.7541 10.013 38.8257 10.4583 38.8257 10.9687V11.4258H33.7593V10.3945H37.2593C37.2593 10.1549 37.2072 9.94271 37.103 9.75781C36.9989 9.57292 36.8543 9.42839 36.6694 9.32422C36.4871 9.21745 36.2749 9.16406 36.0327 9.16406C35.7801 9.16406 35.5562 9.22266 35.3608 9.33984C35.1681 9.45443 35.0171 9.60937 34.9077 9.80469C34.7983 9.9974 34.7424 10.2122 34.7397 10.4492V11.4297C34.7397 11.7266 34.7944 11.9831 34.9038 12.1992C35.0158 12.4154 35.1733 12.582 35.3765 12.6992C35.5796 12.8164 35.8205 12.875 36.0991 12.875C36.284 12.875 36.4533 12.849 36.6069 12.7969C36.7606 12.7448 36.8921 12.6667 37.0015 12.5625C37.1108 12.4583 37.1942 12.3307 37.2515 12.1797L38.7905 12.2812C38.7124 12.651 38.5522 12.974 38.3101 13.25C38.0705 13.5234 37.7606 13.737 37.3804 13.8906C37.0028 14.0417 36.5666 14.1172 36.0718 14.1172ZM41.5757 6V14H39.9116V6H41.5757ZM45.6431 14.1172C45.0259 14.1172 44.4946 13.9922 44.0493 13.7422C43.6066 13.4896 43.2655 13.1328 43.0259 12.6719C42.7863 12.2083 42.6665 11.6602 42.6665 11.0273C42.6665 10.4102 42.7863 9.86849 43.0259 9.40234C43.2655 8.9362 43.6027 8.57292 44.0376 8.3125C44.4751 8.05208 44.9881 7.92188 45.5767 7.92188C45.9725 7.92188 46.341 7.98568 46.6821 8.11328C47.0259 8.23828 47.3254 8.42708 47.5806 8.67969C47.8384 8.93229 48.0389 9.25 48.1821 9.63281C48.3254 10.013 48.397 10.4583 48.397 10.9687V11.4258H43.3306V10.3945H46.8306C46.8306 10.1549 46.7785 9.94271 46.6743 9.75781C46.5701 9.57292 46.4256 9.42839 46.2407 9.32422C46.0584 9.21745 45.8462 9.16406 45.604 9.16406C45.3514 9.16406 45.1274 9.22266 44.9321 9.33984C44.7394 9.45443 44.5884 9.60937 44.479 9.80469C44.3696 9.9974 44.3136 10.2122 44.311 10.4492V11.4297C44.311 11.7266 44.3657 11.9831 44.4751 12.1992C44.5871 12.4154 44.7446 12.582 44.9478 12.6992C45.1509 12.8164 45.3918 12.875 45.6704 12.875C45.8553 12.875 46.0246 12.849 46.1782 12.7969C46.3319 12.7448 46.4634 12.6667 46.5728 12.5625C46.6821 12.4583 46.7655 12.3307 46.8228 12.1797L48.3618 12.2812C48.2837 12.651 48.1235 12.974 47.8813 13.25C47.6418 13.5234 47.3319 13.737 46.9517 13.8906C46.5741 14.0417 46.1379 14.1172 45.6431 14.1172ZM51.147 10.5313V14H49.4829V8H51.0688V9.05859H51.1392C51.272 8.70964 51.4946 8.43359 51.8071 8.23047C52.1196 8.02474 52.4985 7.92188 52.9438 7.92188C53.3605 7.92188 53.7238 8.01302 54.0337 8.19531C54.3436 8.3776 54.5845 8.63802 54.7563 8.97656C54.9282 9.3125 55.0142 9.71354 55.0142 10.1797V14H53.3501V10.4766C53.3527 10.1094 53.259 9.82292 53.0688 9.61719C52.8787 9.40885 52.617 9.30469 52.2837 9.30469C52.0597 9.30469 51.8618 9.35286 51.6899 9.44922C51.5207 9.54557 51.3879 9.6862 51.2915 9.87109C51.1978 10.0534 51.1496 10.2734 51.147 10.5313ZM56.3257 14V8H57.9897V14H56.3257ZM57.1616 7.22656C56.9142 7.22656 56.702 7.14453 56.5249 6.98047C56.3504 6.8138 56.2632 6.61458 56.2632 6.38281C56.2632 6.15365 56.3504 5.95703 56.5249 5.79297C56.702 5.6263 56.9142 5.54297 57.1616 5.54297C57.409 5.54297 57.62 5.6263 57.7944 5.79297C57.9715 5.95703 58.0601 6.15365 58.0601 6.38281C58.0601 6.61458 57.9715 6.8138 57.7944 6.98047C57.62 7.14453 57.409 7.22656 57.1616 7.22656ZM63.1704 11.4453V8H64.8345V14H63.2368V12.9102H63.1743C63.0389 13.2617 62.8136 13.5443 62.4985 13.7578C62.186 13.9714 61.8045 14.0781 61.354 14.0781C60.953 14.0781 60.6001 13.987 60.2954 13.8047C59.9907 13.6224 59.7524 13.3633 59.5806 13.0273C59.4113 12.6914 59.3254 12.2891 59.3228 11.8203V8H60.9868V11.5234C60.9894 11.8776 61.0845 12.1576 61.272 12.3633C61.4595 12.569 61.7108 12.6719 62.0259 12.6719C62.2264 12.6719 62.4139 12.6263 62.5884 12.5352C62.7629 12.4414 62.9035 12.3034 63.0103 12.1211C63.1196 11.9388 63.173 11.7135 63.1704 11.4453ZM66.1655 14V8H67.7515V9.05859H67.8218C67.9468 8.70703 68.1551 8.42969 68.4468 8.22656C68.7384 8.02344 69.0874 7.92188 69.4937 7.92188C69.9051 7.92188 70.2554 8.02474 70.5444 8.23047C70.8335 8.43359 71.0262 8.70964 71.1226 9.05859H71.1851C71.3075 8.71484 71.5288 8.4401 71.8491 8.23437C72.172 8.02604 72.5535 7.92188 72.9937 7.92188C73.5535 7.92188 74.008 8.10026 74.3569 8.45703C74.7085 8.8112 74.8843 9.3138 74.8843 9.96484V14H73.2241V10.293C73.2241 9.95964 73.1356 9.70964 72.9585 9.54297C72.7814 9.3763 72.5601 9.29297 72.2944 9.29297C71.9924 9.29297 71.7567 9.38932 71.5874 9.58203C71.4181 9.77214 71.3335 10.0234 71.3335 10.3359V14H69.7202V10.2578C69.7202 9.96354 69.6356 9.72917 69.4663 9.55469C69.2996 9.38021 69.0796 9.29297 68.8062 9.29297C68.6213 9.29297 68.4546 9.33984 68.3062 9.43359C68.1603 9.52474 68.0444 9.65365 67.9585 9.82031C67.8726 9.98437 67.8296 10.1771 67.8296 10.3984V14H66.1655Z" fill="white"/>
</svg>
