<svg width="65" height="20" viewBox="0 0 65 20" fill="none" xmlns="http://www.w3.org/2000/svg">
<path d="M0 0H65V20H0V0Z" fill="#464646"/>
<path fill-rule="evenodd" clip-rule="evenodd" d="M32.3959 4.51338L31.4065 5.0198L31.4499 8.10157C31.4982 11.5247 31.4492 11.78 30.7914 11.5299C30.5143 11.4245 30.1505 10.8106 28.9065 8.34825C27.4334 5.43282 27.3493 5.29906 27.0113 5.33811C26.7692 5.36607 26.5952 5.50682 26.4598 5.78424C26.3509 6.00704 25.7073 7.35045 25.0294 8.76958C24.0905 10.7354 23.7191 11.3854 23.4701 11.4989C23.2673 11.5912 23.1598 11.735 23.187 11.8772C23.2242 12.0718 23.4137 12.1123 24.4337 12.1443C25.4672 12.1768 25.6486 12.1504 25.7228 11.957C25.8163 11.7132 25.6067 11.5183 25.2473 11.515C24.912 11.5119 24.8413 11.2945 25.0099 10.7836C25.2621 10.0195 25.4332 9.92977 26.634 9.93201C27.2275 9.9332 27.7792 9.97765 27.8602 10.0309C28.028 10.1415 28.5704 11.1686 28.5704 11.3758C28.5704 11.4513 28.4369 11.5139 28.2736 11.515C27.8523 11.5179 27.5949 11.7146 27.6896 11.9614C27.7604 12.1459 28.1286 12.1726 30.6151 12.1726C33.7434 12.1726 33.9188 12.1244 33.2454 11.4511L32.8907 11.0964L32.9472 8.01002C33.0012 5.05264 33.0158 4.9107 33.2933 4.61509C33.5781 4.31208 33.6788 3.98757 33.4842 4.00037C33.4298 4.00406 32.94 4.23491 32.3959 4.51338ZM39.3873 4.51338L38.398 5.0198L38.4448 8.1207C38.4902 11.129 38.4833 11.2298 38.214 11.4991C37.6569 12.0562 37.8228 12.1726 39.1754 12.1726C40.1896 12.1726 40.4291 12.1343 40.4954 11.9615C40.547 11.8272 40.456 11.6556 40.2457 11.4902C39.9687 11.2723 39.915 11.119 39.915 10.5462C39.915 9.33365 40.3974 8.34706 40.9902 8.34706C41.4808 8.34706 41.6723 8.92142 41.595 10.1606C41.5345 11.1318 41.4796 11.3407 41.2328 11.5407C41.0645 11.677 40.9739 11.8598 41.0179 11.9744C41.0777 12.1302 41.3456 12.1726 42.2712 12.1726C43.2636 12.1726 43.4622 12.1369 43.5356 11.9453C43.5951 11.7904 43.5185 11.642 43.2953 11.4795C42.9737 11.2451 42.9689 11.2154 43.0342 9.82687C43.094 8.55746 43.0729 8.36909 42.8282 7.98311C42.6783 7.74659 42.3703 7.44042 42.1437 7.3027C41.6316 6.99125 41.2382 7.10311 40.4384 7.78762L39.8774 8.26791L39.942 6.58957C39.9993 5.10396 40.0393 4.87654 40.2905 4.60889C40.5705 4.31102 40.6687 3.9877 40.4756 4.00037C40.4211 4.00406 39.9315 4.23491 39.3873 4.51338ZM57.7893 7.24268C57.354 7.41878 56.8494 7.67879 56.6681 7.82059L56.3383 8.07835L57.2947 9.9146C57.8207 10.9245 58.251 11.8309 58.2509 11.9288C58.2509 12.0265 57.8701 12.4471 57.4047 12.8633C56.744 13.4541 56.51 13.7661 56.3372 14.2862C56.2156 14.6527 56.154 15.0517 56.2004 15.1728C56.2726 15.3608 56.3273 15.3406 56.5755 15.0339C56.9424 14.5804 57.4704 14.432 59.0425 14.34C60.5426 14.2523 60.7412 14.3364 60.4346 14.9292C60.1953 15.3921 60.2716 15.7093 60.564 15.4667C60.6624 15.3851 60.9179 15.0408 61.1318 14.7018C62.0289 13.2796 61.8611 13.0965 59.6597 13.0945L58.0532 13.0931L58.5149 12.737C59.4004 12.0542 60.9294 10.5193 61.3037 9.93715C61.9362 8.95347 61.6981 7.84421 60.7491 7.35335C60.2701 7.10575 59.8865 7.1663 59.4686 7.55558C59.0676 7.92916 59.093 8.02559 59.6979 8.42595C59.9858 8.61643 60.2573 8.88567 60.3014 9.02431C60.4279 9.42295 60.2499 9.982 59.8413 10.4697L59.4644 10.9194L58.7917 9.54603C58.4219 8.79056 58.1191 8.08152 58.1191 7.97018C58.1191 7.85898 58.2724 7.60795 58.4597 7.41232C58.647 7.21682 58.751 7.0266 58.6906 6.98967C58.6301 6.95286 58.2246 7.06671 57.7893 7.24268ZM35.2103 7.60927C34.261 8.32292 33.8469 9.01046 33.8469 9.87331C33.8469 11.5263 35.2703 12.725 36.4978 12.1058C37.041 11.8317 37.8044 11.1281 37.8044 10.9013C37.8044 10.606 37.5932 10.5967 37.0451 10.8678C36.5363 11.1196 36.4823 11.1225 36.0894 10.9194C35.5877 10.6599 35.298 10.0305 35.298 9.20002C35.298 8.51961 35.4781 8.08323 35.7588 8.08323C35.8619 8.08323 36.112 8.291 36.3147 8.54493C36.7212 9.05438 36.9657 9.10596 37.5471 8.80533C38.1665 8.48504 37.9922 7.95277 37.0585 7.31299C36.4508 6.89667 36.0789 6.95629 35.2103 7.60927ZM45.248 7.46337C44.9004 7.70293 44.434 8.124 44.2113 8.39904C43.8418 8.85546 43.8065 8.98368 43.8065 9.865C43.8065 10.7273 43.8493 10.8919 44.2073 11.4027C44.6531 12.0385 45.4283 12.4061 46.014 12.2591C46.4037 12.1612 47.403 11.4309 47.6165 11.088C47.8672 10.6852 47.5495 10.5593 46.9956 10.8416C46.4049 11.1427 45.9092 11.0526 45.5708 10.5825C45.1028 9.93227 45.1714 9.8278 46.4447 9.25107C48.076 8.51235 48.1109 8.43927 47.2338 7.59898C46.4962 6.89205 46.1148 6.86606 45.248 7.46337ZM48.7001 7.45612C48.4168 7.61969 48.1902 7.79883 48.1964 7.85423C48.2026 7.90964 48.2779 8.2939 48.3639 8.70811C48.45 9.12232 48.4922 9.89929 48.4579 10.4346C48.3989 11.3539 48.3169 11.5392 47.905 11.6837C47.8376 11.7073 47.8209 11.827 47.868 11.9496C47.9927 12.2748 50.3024 12.2822 50.4268 11.9578C50.4793 11.8213 50.4003 11.6609 50.2101 11.5173C49.9445 11.3171 49.9125 11.1841 49.9253 10.339C49.9492 8.77117 50.6574 7.87257 51.3051 8.58833C51.4747 8.77565 51.5234 9.09831 51.5234 10.034C51.5234 11.1646 51.5022 11.2581 51.1771 11.5596C50.6532 12.0454 50.8644 12.1726 52.1949 12.1726C53.1667 12.1726 53.3933 12.1342 53.4608 11.9578C53.5133 11.8213 53.4343 11.6609 53.244 11.5172C52.9679 11.3089 52.9484 11.2087 52.9931 10.2239C53.0476 9.02602 53.3399 8.44376 53.9221 8.37331C54.5032 8.30314 54.6175 8.66234 54.5766 10.431C54.5607 11.1178 54.5038 11.3121 54.2477 11.5523C53.7236 12.0438 53.9279 12.1726 55.2322 12.1726C56.201 12.1726 56.4273 12.134 56.4949 11.9578C56.5472 11.8214 56.4686 11.661 56.2793 11.5183C56.0011 11.3084 55.9832 11.2067 56.0105 9.98517C56.0504 8.2013 56.0669 8.28058 55.5315 7.68789C54.8677 6.95326 54.1844 7.01196 53.3802 7.87283C52.9672 8.31488 52.8201 8.30419 52.5287 7.81083C52.0495 6.99956 51.4247 6.9807 50.4577 7.74844L49.8745 8.21132L49.8085 7.71862C49.7266 7.10668 49.4276 7.03597 48.7001 7.45612ZM27.1222 8.35287C27.3383 8.78093 27.5151 9.16242 27.5151 9.20068C27.5151 9.23906 27.1292 9.27046 26.6576 9.27046C26.186 9.27046 25.8001 9.226 25.7998 9.17152C25.7987 8.90334 26.5117 7.44015 26.6129 7.50281C26.677 7.54239 26.9063 7.92494 27.1222 8.35287ZM46.1273 8.33057L46.4329 8.57791L45.8834 8.85823C45.1543 9.23023 45.0359 9.21703 45.1413 8.77578C45.3148 8.04946 45.6135 7.91452 46.1273 8.33057Z" fill="white"/>
<path fill-rule="evenodd" clip-rule="evenodd" d="M8.77836 5.4432L8.5545 5.83643L7.92092 5.56165C6.73158 5.046 5.58723 5.27369 4.18116 6.30591C3.39574 6.88238 3 7.49683 3 8.13952C3 8.70925 3.13455 9.00052 3.74993 9.76179L4.20108 10.3202L3.85414 10.9121C3.6634 11.2378 3.54454 11.5645 3.59005 11.6383C3.7527 11.9014 5.18924 12.22 6.25247 12.2287C7.24354 12.2369 7.37347 12.206 7.90139 11.8376C9.19441 10.9353 9.67577 9.55509 9.03111 8.59845C8.72005 8.13675 7.85074 7.56055 7.45961 7.55672C7.3368 7.55553 6.80981 7.92265 6.28848 8.37235L5.34081 9.19008L4.96895 8.77389C4.43483 8.17619 4.33405 7.49842 4.71818 7.08935C5.38817 6.37622 6.4758 6.38453 7.72476 7.1123C8.03793 7.29487 8.36731 7.4161 8.45675 7.3818C8.63589 7.31308 9.33187 5.63817 9.33187 5.2758C9.33187 4.91805 9.02425 5.01105 8.77836 5.4432ZM13.3125 5.3283C11.9948 5.57142 10.4857 6.5857 9.98695 7.56358C9.66931 8.18595 9.64622 9.25604 9.93709 9.86891C10.2054 10.4343 11.2407 11.4037 11.9774 11.7795C13.0865 12.3453 14.8618 11.8528 15.8423 10.7072C16.4477 10 16.7725 9.03732 16.7795 7.92925C16.7843 7.16085 16.7353 6.97986 16.3881 6.48545C15.7358 5.55651 14.5315 5.10352 13.3125 5.3283ZM17.1922 5.41048C16.9963 5.60637 17.1583 5.92323 17.5464 6.10356L17.9722 6.30143L18.0082 8.72469C18.0312 10.2697 17.9943 11.2081 17.9064 11.314C17.8306 11.4054 17.5965 11.5147 17.3865 11.5566C17.0813 11.6177 17.0189 11.6871 17.0751 11.9022C17.1433 12.163 17.2369 12.1716 20.0298 12.1716H22.914L22.9945 11.8508C23.0388 11.6744 23.0844 11.1315 23.0959 10.6442C23.1208 9.59308 22.8881 9.36341 22.6395 10.1934C22.3817 11.0538 22.0055 11.2657 20.8171 11.2204L19.819 11.1822V8.67588V6.16951L20.2532 6.04182C20.5769 5.94658 20.6775 5.84844 20.6489 5.65584C20.6134 5.41721 20.4844 5.39518 18.9401 5.36537C18.0213 5.34756 17.2348 5.36787 17.1922 5.41048ZM14.0316 6.56288C14.843 6.80389 15.2125 7.1809 15.3836 7.94297C15.6521 9.13837 15.1106 10.4805 14.2093 10.8539C13.842 11.006 13.7274 10.9935 13.2169 10.7453C11.8979 10.1046 10.9326 8.7975 11.104 7.88426C11.264 7.03157 12.0626 6.38414 12.9685 6.37253C13.1911 6.36976 13.6696 6.45537 14.0316 6.56288ZM7.36042 9.00962C7.65617 9.16792 8.01273 9.80308 8.01273 10.1718C8.01273 10.3124 7.9006 10.5659 7.76354 10.7353C7.55261 10.9957 7.40843 11.0385 6.82458 11.013C6.02743 10.9783 4.86144 10.5212 5.06102 10.3216C5.50373 9.87893 6.78817 8.89261 6.93315 8.88404C7.02852 8.87837 7.22085 8.93483 7.36042 9.00962ZM11.9705 12.7805C11.2924 13.3933 11.2544 13.7248 11.9063 13.3401C12.5399 12.9662 12.9482 13.0604 15.2452 14.1093C16.7574 14.7999 17.265 14.9723 17.7856 14.9723C18.5271 14.9723 18.7452 14.833 19.1031 14.1314C19.3568 13.6341 19.4458 12.9631 19.2581 12.9631C19.2036 12.9631 19.0173 13.2302 18.8441 13.5567C18.6104 13.9973 18.4508 14.1503 18.2254 14.1503C18.0582 14.1503 16.8717 13.7348 15.5884 13.2269C14.3053 12.719 13.0851 12.3035 12.8769 12.3035C12.6275 12.3035 12.3187 12.466 11.9705 12.7805Z" fill="#C8C8C8"/>
</svg>
